<svg width="20" height="13" viewBox="0 0 20 13" fill="none" xmlns="http://www.w3.org/2000/svg">
<path d="M19.8729 5.98462C19.6942 5.74021 15.4371 0 9.9999 0C4.56274 0 0.305387 5.74021 0.12691 5.98439C0.0444411 6.09737 0 6.23363 0 6.37351C0 6.51339 0.0444411 6.64965 0.12691 6.76263C0.305387 7.00705 4.56274 12.7473 9.9999 12.7473C15.4371 12.7473 19.6942 7.00701 19.8729 6.76283C19.9555 6.6499 20 6.51363 20 6.37372C20 6.23382 19.9555 6.09755 19.8729 5.98462ZM9.9999 11.4286C5.99485 11.4286 2.52606 7.61869 1.49922 6.37318C2.52473 5.12657 5.98626 1.31867 9.9999 1.31867C14.0048 1.31867 17.4733 5.1279 18.5006 6.37407C17.4751 7.62064 14.0135 11.4286 9.9999 11.4286Z" fill="#797979"/>
<path d="M9.99903 2.41758C7.8177 2.41758 6.04297 4.19231 6.04297 6.37364C6.04297 8.55497 7.8177 10.3297 9.99903 10.3297C12.1804 10.3297 13.9551 8.55497 13.9551 6.37364C13.9551 4.19231 12.1804 2.41758 9.99903 2.41758ZM9.99903 9.01099C8.54473 9.01099 7.36168 7.8279 7.36168 6.37364C7.36168 4.91938 8.54477 3.73629 9.99903 3.73629C11.4533 3.73629 12.6364 4.91938 12.6364 6.37364C12.6364 7.8279 11.4533 9.01099 9.99903 9.01099Z" fill="#797979"/>
</svg>
