<svg width="20" height="19" viewBox="0 0 20 19" fill="none" xmlns="http://www.w3.org/2000/svg">
<path d="M7.86063 5.40582C8.58752 5.16859 9.30703 5.04836 9.99983 5.04836C13.9295 5.04836 17.3885 8.86982 18.4309 10.1416C17.8303 10.8738 17.1764 11.5604 16.4746 12.1961C16.3451 12.3207 16.2692 12.4907 16.263 12.6702C16.2567 12.8498 16.3206 13.0247 16.441 13.1579C16.5615 13.2912 16.7291 13.3724 16.9083 13.3842C17.0876 13.3961 17.2644 13.3377 17.4014 13.2215C18.909 11.8584 19.8294 10.5995 19.8681 10.5465C19.9538 10.4285 20 10.2864 20 10.1405C20 9.99461 19.9538 9.85248 19.8681 9.73444C19.688 9.48754 15.3985 3.66645 9.99983 3.66645C9.16147 3.66645 8.29777 3.80971 7.43223 4.09208C7.34595 4.12015 7.26605 4.16497 7.1971 4.22397C7.12816 4.28297 7.07153 4.35498 7.03045 4.43589C6.98938 4.5168 6.96466 4.60502 6.95773 4.69549C6.95079 4.78596 6.96176 4.87692 6.99002 4.96315C7.018 5.04946 7.06274 5.1294 7.12167 5.19839C7.1806 5.26737 7.25257 5.32405 7.33345 5.36518C7.41433 5.4063 7.50252 5.43106 7.59299 5.43803C7.68345 5.44501 7.7744 5.43406 7.86063 5.40582ZM1.14498 0.928411C1.0068 0.808014 0.826461 0.747436 0.643624 0.760006C0.460787 0.772575 0.290432 0.857261 0.170034 0.995434C0.0496365 1.13361 -0.0109408 1.31395 0.00162844 1.49679C0.0141977 1.67962 0.0988839 1.84998 0.237057 1.97038L4.42288 5.61817C1.88016 7.3557 0.207576 9.63126 0.132031 9.73536C0.0465028 9.85348 0.000454744 9.99559 0.000454744 10.1414C0.000454744 10.2872 0.0465028 10.4294 0.132031 10.5475C0.31168 10.7948 4.60115 16.6159 9.99983 16.6159C11.6673 16.6159 13.3929 16.0516 15.1337 14.9521L18.8547 18.195C18.923 18.2548 19.0025 18.3005 19.0885 18.3295C19.1745 18.3585 19.2655 18.3702 19.356 18.364C19.4466 18.3577 19.5351 18.3336 19.6163 18.2931C19.6975 18.2525 19.77 18.1964 19.8294 18.1277C19.9497 17.9896 20.0102 17.8092 19.9976 17.6265C19.985 17.4437 19.9003 17.2734 19.7622 17.153L1.14498 0.928411ZM8.17064 8.88364L11.2717 11.5862C10.9061 11.865 10.4595 12.0167 9.99983 12.0183C9.44114 12.0176 8.90553 11.7953 8.51047 11.4002C8.11541 11.0052 7.89314 10.4696 7.89241 9.91087C7.89241 9.54236 7.99513 9.19457 8.17064 8.88364ZM9.99983 15.234C6.07012 15.234 2.61165 11.413 1.56922 10.1407C2.18003 9.39403 3.6269 7.77535 5.50676 6.56248L7.10794 7.95822C6.71654 8.53403 6.50814 9.21462 6.51004 9.91087C6.51004 11.835 8.07529 13.4002 9.99937 13.4002C10.8649 13.4002 11.6918 13.0732 12.3261 12.5056L14.0429 14.0018C12.6508 14.8176 11.2933 15.234 9.99983 15.234Z" fill="#B5B5B5"/>
</svg>
