<svg 

 xmlns="http://www.w3.org/2000/svg"

 xmlns:xlink="http://www.w3.org/1999/xlink"

 width="53.5px" height="53.5px">

<path fill-rule="evenodd"  stroke-width="1px" stroke="rgb(255, 255, 255)" fill="rgb(35, 38, 51)"

 d="M20.000,15.000 L45.000,15.000 C47.761,15.000 50.000,17.239 50.000,20.000 L50.000,45.000 C50.000,47.761 47.761,50.000 45.000,50.000 L20.000,50.000 C17.239,50.000 15.000,47.761 15.000,45.000 L15.000,20.000 C15.000,17.239 17.239,15.000 20.000,15.000 Z"/>

<path fill-rule="evenodd"  fill="rgb(255 88 135)"

 d="M5.000,-0.000 L34.000,-0.000 C36.761,-0.000 39.000,2.239 39.000,5.000 L39.000,34.000 C39.000,36.761 36.761,39.000 34.000,39.000 L5.000,39.000 C2.239,39.000 -0.000,36.761 -0.000,34.000 L-0.000,5.000 C-0.000,2.239 2.239,-0.000 5.000,-0.000 Z"/>

</svg>