<svg 

 xmlns="http://www.w3.org/2000/svg"

 xmlns:xlink="http://www.w3.org/1999/xlink"

 width="57px" height="57px">

<path fill-rule="evenodd"  stroke-width="1px" stroke="rgb(255, 255, 255)" fill="rgb(35, 38, 51)"

 d="M23.500,18.500 L48.500,18.500 C51.261,18.500 53.500,20.739 53.500,23.500 L53.500,48.500 C53.500,51.261 51.261,53.500 48.500,53.500 L23.500,53.500 C20.739,53.500 18.500,51.261 18.500,48.500 L18.500,23.500 C18.500,20.739 20.739,18.500 23.500,18.500 Z"/>

<path fill-rule="evenodd"  stroke-width="1px" stroke="rgb(255, 255, 255)" fill="rgb(35, 38, 51)"

 d="M8.500,3.500 L33.500,3.500 C36.261,3.500 38.500,5.739 38.500,8.500 L38.500,33.500 C38.500,36.261 36.261,38.500 33.500,38.500 L8.500,38.500 C5.739,38.500 3.500,36.261 3.500,33.500 L3.500,8.500 C3.500,5.739 5.739,3.500 8.500,3.500 Z"/>

<path fill-rule="evenodd"  fill="rgb(255 88 135)"

 d="M16.500,11.500 L40.500,11.500 C43.261,11.500 45.500,13.739 45.500,16.500 L45.500,40.500 C45.500,43.261 43.261,45.500 40.500,45.500 L16.500,45.500 C13.739,45.500 11.500,43.261 11.500,40.500 L11.500,16.500 C11.500,13.739 13.739,11.500 16.500,11.500 Z"/>

</svg>