<svg 

 xmlns="http://www.w3.org/2000/svg"

 xmlns:xlink="http://www.w3.org/1999/xlink"

 width="50px" height="50px">

<path fill-rule="evenodd"  fill="rgb(255 88 135)"

 d="M46.143,43.003 L41.113,43.003 L38.555,43.003 L13.843,43.003 C11.723,43.003 10.001,41.280 10.001,39.159 L10.001,9.596 L10.000,7.034 L10.000,3.850 C10.000,1.729 11.723,0.006 13.841,0.006 L41.690,0.006 L49.985,8.713 L49.985,39.159 C49.985,41.280 48.262,43.003 46.143,43.003 ZM30.172,22.332 C30.172,22.128 30.131,21.925 30.050,21.734 C29.890,21.350 29.586,21.045 29.201,20.887 C29.009,20.805 28.805,20.764 28.600,20.764 L18.579,20.764 C17.710,20.764 17.007,21.465 17.007,22.332 C17.007,23.198 17.710,23.899 18.579,23.899 L24.807,23.899 L14.391,34.283 C13.777,34.896 13.777,35.886 14.391,36.499 C14.698,36.803 15.101,36.958 15.502,36.958 C15.905,36.958 16.307,36.806 16.614,36.499 L27.028,26.113 L27.028,32.325 C27.028,33.192 27.732,33.893 28.600,33.893 C29.469,33.893 30.172,33.193 30.172,32.325 L30.172,22.332 ZM40.273,1.406 L40.273,6.867 C40.273,8.651 41.732,10.105 43.522,10.105 L49.473,10.105 L40.273,1.406 Z"/>

<path fill-rule="evenodd"  fill="rgb(207, 207, 207)"

 d="M41.092,42.971 L41.092,46.153 C41.092,48.272 39.366,49.994 37.242,49.994 L3.862,49.994 C1.739,49.994 0.012,48.272 0.012,46.153 L0.012,10.869 C0.012,8.751 1.739,7.029 3.862,7.029 L9.906,7.029 L9.908,9.589 L3.864,9.589 C3.156,9.589 2.581,10.163 2.581,10.869 L2.581,46.153 C2.581,46.859 3.156,47.434 3.864,47.434 L37.244,47.434 C37.950,47.434 38.525,46.859 38.525,46.153 L38.528,46.153 L38.528,42.971 L41.000,43.000 "/>

</svg>