<?xml version="1.0" encoding="UTF-8"?>
<svg xmlns="http://www.w3.org/2000/svg" xmlns:xlink="http://www.w3.org/1999/xlink" width="20pt" height="20pt" viewBox="0 0 20 20" version="1.1">
<g id="surface1">
<path style=" stroke:none;fill-rule:nonzero;fill:rgb(65.882353%,91.764706%,93.72549%);fill-opacity:1;" d="M 19.4375 6.378906 L 14.394531 1.335938 C 13.640625 0.585938 12.421875 0.585938 11.671875 1.335938 L 0.5625 12.441406 C -0.1875 13.195312 -0.1875 14.414062 0.5625 15.167969 L 4.625 19.226562 L 9.308594 19.226562 L 19.4375 9.101562 C 20.1875 8.351562 20.1875 7.128906 19.4375 6.378906 Z M 19.4375 6.378906 "/>
<path style=" stroke:none;fill-rule:nonzero;fill:rgb(50.196078%,80.392157%,84.705882%);fill-opacity:1;" d="M 19.4375 6.378906 L 16.914062 3.859375 L 3.085938 17.6875 L 4.625 19.226562 L 9.308594 19.226562 L 19.4375 9.101562 C 20.1875 8.351562 20.1875 7.128906 19.4375 6.378906 Z M 19.4375 6.378906 "/>
<path style=" stroke:none;fill-rule:nonzero;fill:rgb(87.843137%,41.960784%,20.392157%);fill-opacity:1;" d="M 0.5625 12.441406 C -0.1875 13.195312 -0.1875 14.414062 0.5625 15.167969 L 4.625 19.226562 L 9.308594 19.226562 L 13.882812 14.65625 L 6.117188 6.890625 Z M 0.5625 12.441406 "/>
<path style=" stroke:none;fill-rule:nonzero;fill:rgb(81.960784%,22.352941%,23.529412%);fill-opacity:1;" d="M 3.085938 17.6875 L 4.625 19.226562 L 9.308594 19.226562 L 13.882812 14.65625 L 10 10.773438 Z M 3.085938 17.6875 "/>
</g>
</svg>
