<svg 

 xmlns="http://www.w3.org/2000/svg"

 xmlns:xlink="http://www.w3.org/1999/xlink"

 width="50px" height="50px">

<path fill-rule="evenodd"  fill="rgb(207, 207, 207)"

 d="M24.000,9.000 L25.000,9.000 C26.105,9.000 27.000,9.895 27.000,11.000 L27.000,48.000 C27.000,49.105 26.105,50.000 25.000,50.000 L24.000,50.000 C22.895,50.000 22.000,49.105 22.000,48.000 L22.000,11.000 C22.000,9.895 22.895,9.000 24.000,9.000 Z"/>

<path fill-rule="evenodd"  fill="rgb(255 88 135)"

 d="M34.256,34.774 L50.000,21.008 L50.000,48.000 L34.256,34.774 ZM47.376,26.677 L38.454,34.774 L47.376,42.332 L47.376,26.677 ZM0.000,21.278 L15.744,34.504 L0.000,48.000 L0.000,21.278 Z"/>

<path fill-rule="evenodd"  fill="rgb(207, 207, 207)"

 d="M25.000,3.333 L25.000,3.333 C29.333,3.333 33.667,5.667 37.000,9.667 L33.333,13.333 L43.333,13.333 L43.333,3.333 L39.333,7.333 C35.333,2.667 30.333,0.000 25.000,0.000 L25.000,0.000 C18.667,0.000 13.000,3.333 8.667,9.667 L11.333,11.667 C15.000,6.333 19.667,3.333 25.000,3.333 Z"/>

</svg>