<svg 

 xmlns="http://www.w3.org/2000/svg"

 xmlns:xlink="http://www.w3.org/1999/xlink"

 width="50px" height="50px">

<path fill-rule="evenodd"  fill="rgb(207, 207, 207)"

 d="M2.000,22.000 L39.000,22.000 C40.105,22.000 41.000,22.895 41.000,24.000 L41.000,25.000 C41.000,26.105 40.105,27.000 39.000,27.000 L2.000,27.000 C0.895,27.000 -0.000,26.105 -0.000,25.000 L-0.000,24.000 C-0.000,22.895 0.895,22.000 2.000,22.000 Z"/>

<path fill-rule="evenodd"  fill="rgb(255 88 135)"

 d="M2.000,0.000 L28.722,0.000 L15.496,15.744 L2.000,0.000 ZM28.992,50.000 L2.000,50.000 L15.226,34.256 L28.992,50.000 ZM23.323,47.376 L15.226,38.454 L7.668,47.376 L23.323,47.376 Z"/>

<path fill-rule="evenodd"  fill="rgb(207, 207, 207)"

 d="M46.667,25.000 L46.667,25.000 C46.667,29.333 44.333,33.667 40.333,37.000 L36.667,33.333 L36.667,43.333 L46.667,43.333 L42.667,39.333 C47.333,35.333 50.000,30.333 50.000,25.000 L50.000,25.000 C50.000,18.667 46.667,13.000 40.333,8.667 L38.333,11.333 C43.667,15.000 46.667,19.667 46.667,25.000 Z"/>

</svg>