<?xml version="1.0" encoding="utf-8"?>
<!-- Generator: Adobe Illustrator 22.1.0, SVG Export Plug-In . SVG Version: 6.00 Build 0)  -->
<svg version="1.1" id="Layer_1" xmlns="http://www.w3.org/2000/svg" xmlns:xlink="http://www.w3.org/1999/xlink" x="0px" y="0px"
	 viewBox="0 0 50 45" style="enable-background:new 0 0 50 45;" xml:space="preserve">
<style type="text/css">
	.st0{fill:#CFCFCF;}
	.st1{fill:rgb(255 88 135);}
	.st2{fill:rgb(255 88 135);}
</style>
<path class="st0" d="M2,19.5h46c1.1,0,2,0.9,2,2v2c0,1.1-0.9,2-2,2H2c-1.1,0-2-0.9-2-2v-2C0,20.4,0.9,19.5,2,19.5z"/>
<path class="st1" d="M12,8.5h5c1.1,0,2,0.9,2,2v24c0,1.1-0.9,2-2,2h-5c-1.1,0-2-0.9-2-2v-24C10,9.4,10.9,8.5,12,8.5z"/>
<path class="st2" d="M31,3.5h6c1.1,0,2,0.9,2,2v34c0,1.1-0.9,2-2,2h-6c-1.1,0-2-0.9-2-2v-34C29,4.4,29.9,3.5,31,3.5z"/>
</svg>
