<?xml version="1.0" encoding="utf-8"?>
<!-- Generator: Adobe Illustrator 22.1.0, SVG Export Plug-In . SVG Version: 6.00 Build 0)  -->
<svg version="1.1" id="Layer_1" xmlns="http://www.w3.org/2000/svg" xmlns:xlink="http://www.w3.org/1999/xlink" x="0px" y="0px"
	 viewBox="0 0 50 51.5" style="enable-background:new 0 0 50 51.5;" xml:space="preserve">
<style type="text/css">
	.st0{fill:#CFCFCF;}
	.st1{fill:rgb(255 88 135);}
	.st2{fill:rgb(255 88 135);}
</style>
<path class="st0" d="M2,0h46c1.1,0,2,0.9,2,2v2c0,1.1-0.9,2-2,2H2C0.9,6,0,5.1,0,4V2C0,0.9,0.9,0,2,0z"/>
<path class="st1" d="M13,10h6c1.1,0,2,0.9,2,2v34c0,1.1-0.9,2-2,2h-6c-1.1,0-2-0.9-2-2V12C11,10.9,11.9,10,13,10z"/>
<path class="st2" d="M33,10h5c1.1,0,2,0.9,2,2v24c0,1.1-0.9,2-2,2h-5c-1.1,0-2-0.9-2-2V12C31,10.9,31.9,10,33,10z"/>
</svg>
