<?xml version="1.0" encoding="utf-8"?>
<!-- Generator: Adobe Illustrator 22.1.0, SVG Export Plug-In . SVG Version: 6.00 Build 0)  -->
<svg version="1.1" id="Layer_1" xmlns="http://www.w3.org/2000/svg" xmlns:xlink="http://www.w3.org/1999/xlink" x="0px" y="0px"
	 viewBox="0 0 51.5 50" style="enable-background:new 0 0 51.5 50;" xml:space="preserve">
<style type="text/css">
	.st0{fill:#CFCFCF;}
	.st1{fill:rgb(255 88 135);}
	.st2{fill:rgb(255 88 135);}
</style>
<path class="st0" d="M2,0h2c1.1,0,2,0.9,2,2v46c0,1.1-0.9,2-2,2H2c-1.1,0-2-0.9-2-2V2C0,0.9,0.9,0,2,0z"/>
<path class="st1" d="M12,11h34c1.1,0,2,0.9,2,2v6c0,1.1-0.9,2-2,2H12c-1.1,0-2-0.9-2-2v-6C10,11.9,10.9,11,12,11z"/>
<path class="st2" d="M12,31h24c1.1,0,2,0.9,2,2v6c0,1.1-0.9,2-2,2H12c-1.1,0-2-0.9-2-2v-6C10,31.9,10.9,31,12,31z"/>
</svg>
