<?xml version="1.0" encoding="utf-8"?>
<!-- Generator: Adobe Illustrator 22.1.0, SVG Export Plug-In . SVG Version: 6.00 Build 0)  -->
<svg version="1.1" id="Layer_1" xmlns="http://www.w3.org/2000/svg" xmlns:xlink="http://www.w3.org/1999/xlink" x="0px" y="0px"
	 viewBox="0 0 208 200" style="enable-background:new 0 0 208 200;" xml:space="preserve">
<style type="text/css">
	.st0{fill:#CFCFCF;}
	.st1{fill:rgb(255 88 135);}
	.st2{fill:rgb(255 88 135);}
</style>
<path class="st0" d="M5,174h198c2.8,0,5,2.2,5,5v16c0,2.8-2.2,5-5,5H5c-2.8,0-5-2.2-5-5v-16C0,176.2,2.2,174,5,174z"/>
<path class="st1" d="M47,0h36c2.8,0,5,2.2,5,5v153c0,2.8-2.2,5-5,5H47c-2.8,0-5-2.2-5-5V5C42,2.2,44.2,0,47,0z"/>
<path class="st2" d="M133,43h28c2.8,0,5,2.2,5,5v108c0,2.8-2.2,5-5,5h-28c-2.8,0-5-2.2-5-5V48C128,45.2,130.2,43,133,43z"/>
</svg>
