<?xml version="1.0" encoding="utf-8"?>
<!-- Generator: Adobe Illustrator 22.1.0, SVG Export Plug-In . SVG Version: 6.00 Build 0)  -->
<svg version="1.1" id="Layer_1" xmlns="http://www.w3.org/2000/svg" xmlns:xlink="http://www.w3.org/1999/xlink" x="0px" y="0px"
	 viewBox="0 0 45 50" style="enable-background:new 0 0 45 50;" xml:space="preserve">
<style type="text/css">
	.st0{fill:#CFCFCF;}
	.st1{fill:rgb(255 88 135);}
	.st2{fill:rgb(255 88 135);}
</style>
<path class="st0" d="M21.5,0h2c1.1,0,2,0.9,2,2v46c0,1.1-0.9,2-2,2h-2c-1.1,0-2-0.9-2-2V2C19.5,0.9,20.4,0,21.5,0z"/>
<path class="st1" d="M10.5,31h24c1.1,0,2,0.9,2,2v5c0,1.1-0.9,2-2,2h-24c-1.1,0-2-0.9-2-2v-5C8.5,31.9,9.4,31,10.5,31z"/>
<path class="st2" d="M5.5,11h34c1.1,0,2,0.9,2,2v6c0,1.1-0.9,2-2,2h-34c-1.1,0-2-0.9-2-2v-6C3.5,11.9,4.4,11,5.5,11z"/>
</svg>
