<svg 
 xmlns="http://www.w3.org/2000/svg"
 xmlns:xlink="http://www.w3.org/1999/xlink"
 width="35px" height="50px">
<path fill-rule="evenodd"  fill="rgb(255 88 135)"
 d="M29.167,45.548 C21.970,51.990 10.837,51.369 4.427,44.135 C-1.983,36.902 -1.364,25.769 5.833,19.270 C5.833,19.214 5.833,19.157 5.833,19.101 L5.833,11.754 C5.833,5.256 11.062,-0.000 17.528,-0.000 C23.994,-0.000 29.223,5.256 29.223,11.754 L29.223,19.327 C29.673,19.722 30.123,20.231 30.573,20.683 C36.982,27.917 36.364,39.106 29.167,45.548 ZM15.016,37.524 C15.016,38.899 16.129,39.999 17.521,39.999 C18.912,39.999 20.025,38.899 20.025,37.524 L20.025,31.474 C20.025,30.099 18.912,28.999 17.521,28.999 C16.129,28.999 15.016,30.099 15.016,31.474 L15.016,37.524 ZM26.131,11.811 C26.131,7.007 22.307,3.165 17.528,3.165 C12.749,3.165 8.925,7.064 8.925,11.811 L8.925,17.123 C14.267,14.071 20.789,14.071 26.131,17.123 L26.131,11.811 Z"/>
</svg>