<svg 
 xmlns="http://www.w3.org/2000/svg"
 xmlns:xlink="http://www.w3.org/1999/xlink"
 width="35px" height="50px">
<path fill-rule="evenodd"  fill="rgb(255 88 135)"
 d="M29.167,45.548 C21.970,51.990 10.837,51.369 4.427,44.135 C-1.983,36.902 -1.364,25.769 5.833,19.270 C5.833,19.270 7.942,17.673 8.925,17.123 C14.267,14.071 20.789,14.071 26.131,17.123 L26.131,11.811 C26.131,7.007 22.307,3.165 17.528,3.165 C15.047,3.165 12.823,4.216 11.259,5.890 L11.231,5.862 C10.606,6.400 9.666,6.349 9.104,5.735 C8.573,5.154 8.569,4.275 9.065,3.688 L9.040,3.663 C11.170,1.406 14.184,-0.000 17.528,-0.000 C23.994,-0.000 29.223,5.256 29.223,11.754 L29.223,19.327 C29.673,19.722 30.123,20.231 30.573,20.683 C36.982,27.917 36.364,39.106 29.167,45.548 ZM20.025,31.474 C20.025,30.099 18.912,28.999 17.521,28.999 C16.129,28.999 15.016,30.099 15.016,31.474 L15.016,37.524 C15.016,38.899 16.129,39.999 17.521,39.999 C18.912,39.999 20.025,38.899 20.025,37.524 L20.025,31.474 Z"/>
</svg>