<svg 
 xmlns="http://www.w3.org/2000/svg"
 xmlns:xlink="http://www.w3.org/1999/xlink"
 width="912px" height="813px">
<path fill-rule="evenodd"  fill="#949494"
 d="M886.408,75.339 C868.214,78.241 846.322,82.443 842.923,83.643 C816.032,93.448 798.737,111.057 798.737,140.673 L798.737,314.947 L855.728,314.947 C883.918,314.947 906.711,337.759 906.711,365.973 C906.711,394.188 883.918,417.000 855.728,417.000 L798.737,417.000 L798.737,549.383 C798.737,583.800 791.340,617.318 776.745,648.934 C762.149,680.550 740.257,708.965 711.566,733.377 L711.466,733.477 C682.575,757.690 646.687,777.100 604.601,791.207 C562.715,805.214 514.631,812.318 461.448,812.318 C459.749,812.318 458.049,812.218 456.050,812.218 C454.151,812.318 452.351,812.318 450.652,812.318 C397.469,812.318 349.285,805.214 307.499,791.207 C265.413,777.100 229.424,757.690 200.634,733.477 L200.534,733.377 C171.843,708.965 149.951,680.550 135.355,648.934 C120.760,617.318 113.363,583.800 113.363,549.383 L113.363,417.000 L54.471,417.000 C26.280,417.000 3.488,394.188 3.488,365.973 C3.488,337.759 26.280,314.947 54.471,314.947 L113.363,314.947 L113.363,140.573 C113.363,110.957 96.168,93.348 69.177,83.543 C65.778,82.343 43.885,78.141 25.691,75.239 C11.196,72.938 0.500,60.331 0.500,45.624 C0.500,40.721 0.500,35.519 0.500,30.516 C0.500,13.908 13.895,0.501 30.490,0.501 L359.382,0.501 C375.976,0.501 389.372,13.908 389.372,30.516 L389.372,44.923 C389.372,60.431 377.576,73.338 362.181,74.839 C347.586,76.240 333.190,78.341 318.895,81.142 C288.705,87.145 274.010,103.954 274.010,134.469 L274.010,314.947 L638.290,314.947 L638.290,134.569 C638.290,103.954 623.595,87.145 593.405,81.242 C579.109,78.441 564.614,76.340 550.119,74.939 C534.724,73.438 522.928,60.531 522.928,45.024 L522.928,30.516 C522.928,13.908 536.324,0.501 552.918,0.501 L881.510,0.501 C898.105,0.501 911.500,13.908 911.500,30.516 C911.500,35.519 911.500,40.721 911.500,45.624 C911.500,60.331 900.904,72.938 886.408,75.339 ZM274.010,417.000 L274.010,509.662 C274.010,531.574 276.509,554.986 281.307,579.198 C285.906,602.310 295.203,624.221 308.898,644.231 C323.194,664.442 343.087,681.150 367.879,694.157 C389.472,705.463 419.162,711.966 456.150,713.367 C493.038,711.866 522.828,705.463 544.421,694.157 C569.213,681.150 589.106,664.342 603.402,644.231 C617.097,624.221 626.394,602.310 630.992,579.198 C635.791,555.086 638.290,531.674 638.290,509.662 L638.290,417.000 L274.010,417.000 Z"/>
</svg>