<svg 

 xmlns="http://www.w3.org/2000/svg"

 xmlns:xlink="http://www.w3.org/1999/xlink"

 width="904px" height="964px">

<path fill-rule="evenodd"  fill="#949494"

 d="M852.728,103.000 L51.471,103.000 C23.280,103.000 0.488,80.188 0.488,51.973 C0.488,23.759 23.280,0.947 51.471,0.947 L852.728,0.947 C880.918,0.947 903.711,23.759 903.711,51.973 C903.711,80.188 880.918,103.000 852.728,103.000 ZM40.101,176.501 L359.245,176.501 C375.348,176.501 388.347,189.498 388.347,205.599 L388.347,219.566 C388.347,234.600 376.900,247.112 361.961,248.567 C347.799,249.925 333.830,251.961 319.959,254.677 C290.663,260.497 276.404,276.792 276.404,306.375 L276.404,670.100 C276.404,691.342 278.829,714.038 283.485,737.510 C287.947,759.916 296.969,781.157 310.258,800.556 C324.130,820.149 343.434,836.347 367.491,848.956 C388.444,859.916 417.254,866.221 453.146,867.579 C488.940,866.124 517.847,859.916 538.800,848.956 C562.857,836.347 582.161,820.052 596.033,800.556 C609.322,781.157 618.344,759.916 622.806,737.510 C627.462,714.135 629.887,691.439 629.887,670.100 L629.887,306.472 C629.887,276.792 615.628,260.497 586.332,254.774 C572.461,252.058 558.395,250.022 544.330,248.664 C529.391,247.209 517.944,234.697 517.944,219.663 L517.944,205.599 C517.944,189.498 530.943,176.501 547.046,176.501 L865.899,176.501 C882.002,176.501 895.000,189.498 895.000,205.599 C895.000,210.448 895.000,215.492 895.000,220.245 C895.000,234.503 884.718,246.724 870.652,249.052 C852.997,251.864 831.754,255.938 828.455,257.102 C802.361,266.607 785.579,283.678 785.579,312.388 L785.579,708.606 C785.579,741.972 778.401,774.465 764.238,805.115 C750.076,835.765 728.832,863.311 700.992,886.977 L700.895,887.074 C672.860,910.547 638.036,929.363 597.197,943.039 C556.552,956.619 509.893,963.505 458.287,963.505 C456.638,963.505 454.989,963.408 453.048,963.408 C451.205,963.505 449.459,963.505 447.810,963.505 C396.204,963.505 349.448,956.619 308.900,943.039 C268.061,929.363 233.140,910.547 205.202,887.074 L205.105,886.977 C177.265,863.311 156.021,835.765 141.858,805.115 C127.696,774.465 120.518,741.972 120.518,708.606 L120.518,312.291 C120.518,283.581 103.833,266.510 77.642,257.005 C74.343,255.841 53.100,251.767 35.445,248.955 C21.379,246.724 11.000,234.503 11.000,220.245 C11.000,215.492 11.000,210.448 11.000,205.599 C11.000,189.498 23.998,176.501 40.101,176.501 Z"/>

</svg>