<svg width="13" height="7" viewBox="0 0 13 7" fill="none" xmlns="http://www.w3.org/2000/svg">
<path fill-rule="evenodd" clip-rule="evenodd" d="M1.23429 0.205221C1.0987 0.0738199 0.914793 0 0.723033 0C0.531273 0 0.347366 0.0738199 0.211771 0.205221C0.0761763 0.336622 0 0.514841 0 0.70067C0 0.8865 0.0761763 1.06472 0.211771 1.19612L5.98874 6.79441C6.05582 6.85958 6.1355 6.91128 6.22324 6.94656C6.31097 6.98184 6.40502 7 6.5 7C6.59498 7 6.68904 6.98184 6.77677 6.94656C6.8645 6.91128 6.94418 6.85958 7.01126 6.79441L12.7882 1.19612C12.9238 1.06472 13 0.8865 13 0.70067C13 0.514841 12.9238 0.336622 12.7882 0.205221C12.6526 0.0738199 12.4687 0 12.277 0C12.0852 0 11.9013 0.0738199 11.7657 0.205221L6.5 5.30946L1.23429 0.205221Z" fill="#B5B5B5"/>
</svg>
