<svg 

 xmlns="http://www.w3.org/2000/svg"

 xmlns:xlink="http://www.w3.org/1999/xlink"

 width="53.5px" height="53.5px">

<path fill-rule="evenodd"  fill="rgb(255 88 135)"

 d="M19.500,14.500 L48.500,14.500 C51.261,14.500 53.500,16.739 53.500,19.500 L53.500,48.500 C53.500,51.261 51.261,53.500 48.500,53.500 L19.500,53.500 C16.739,53.500 14.500,51.261 14.500,48.500 L14.500,19.500 C14.500,16.739 16.739,14.500 19.500,14.500 Z"/>

<path fill-rule="evenodd"  stroke-width="1px" stroke="rgb(255, 255, 255)" fill="rgb(35, 38, 51)"

 d="M8.500,3.500 L33.500,3.500 C36.261,3.500 38.500,5.739 38.500,8.500 L38.500,33.500 C38.500,36.261 36.261,38.500 33.500,38.500 L8.500,38.500 C5.739,38.500 3.500,36.261 3.500,33.500 L3.500,8.500 C3.500,5.739 5.739,3.500 8.500,3.500 Z"/>

</svg>