<svg 

 xmlns="http://www.w3.org/2000/svg"

 xmlns:xlink="http://www.w3.org/1999/xlink"

 width="57px" height="57px">

<path fill-rule="evenodd"  fill="rgb(255 88 135)"

 d="M16.500,11.500 L40.500,11.500 C43.261,11.500 45.500,13.739 45.500,16.500 L45.500,40.500 C45.500,43.261 43.261,45.500 40.500,45.500 L16.500,45.500 C13.739,45.500 11.500,43.261 11.500,40.500 L11.500,16.500 C11.500,13.739 13.739,11.500 16.500,11.500 Z"/>

<path fill-rule="evenodd"  stroke-width="1px" stroke="rgb(255, 255, 255)" fill="rgb(35, 38, 51)"

 d="M34.500,29.500 L48.500,29.500 C51.261,29.500 53.500,31.739 53.500,34.500 L53.500,48.500 C53.500,51.261 51.261,53.500 48.500,53.500 L34.500,53.500 C31.739,53.500 29.500,51.261 29.500,48.500 L29.500,34.500 C29.500,31.739 31.739,29.500 34.500,29.500 Z"/>

<path fill-rule="evenodd"  stroke-width="1px" stroke="rgb(255, 255, 255)" fill="rgb(35, 38, 51)"

 d="M8.500,3.500 L22.500,3.500 C25.261,3.500 27.500,5.739 27.500,8.500 L27.500,22.500 C27.500,25.261 25.261,27.500 22.500,27.500 L8.500,27.500 C5.739,27.500 3.500,25.261 3.500,22.500 L3.500,8.500 C3.500,5.739 5.739,3.500 8.500,3.500 Z"/>

</svg>