<svg width="13" height="16" viewBox="0 0 13 16" fill="none" xmlns="http://www.w3.org/2000/svg">
<path d="M4.0625 1.7087C3.84701 1.7087 3.64035 1.7986 3.48798 1.95862C3.3356 2.11865 3.25 2.33569 3.25 2.562C3.25 2.78831 3.3356 3.00535 3.48798 3.16538C3.64035 3.3254 3.84701 3.4153 4.0625 3.4153C4.27799 3.4153 4.48465 3.3254 4.63702 3.16538C4.7894 3.00535 4.875 2.78831 4.875 2.562C4.875 2.33569 4.7894 2.11865 4.63702 1.95862C4.48465 1.7986 4.27799 1.7087 4.0625 1.7087ZM1.76313 1.7087C1.93099 1.20906 2.24229 0.776407 2.65411 0.470375C3.06594 0.164343 3.55801 0 4.0625 0C4.56699 0 5.05906 0.164343 5.47089 0.470375C5.88271 0.776407 6.19401 1.20906 6.36188 1.7087H12.1875C12.403 1.7087 12.6097 1.7986 12.762 1.95862C12.9144 2.11865 13 2.33569 13 2.562C13 2.78831 12.9144 3.00535 12.762 3.16538C12.6097 3.3254 12.403 3.4153 12.1875 3.4153H6.36188C6.19401 3.91494 5.88271 4.34759 5.47089 4.65363C5.05906 4.95966 4.56699 5.124 4.0625 5.124C3.55801 5.124 3.06594 4.95966 2.65411 4.65363C2.24229 4.34759 1.93099 3.91494 1.76313 3.4153H0.8125C0.597012 3.4153 0.390349 3.3254 0.237976 3.16538C0.0856026 3.00535 0 2.78831 0 2.562C0 2.33569 0.0856026 2.11865 0.237976 1.95862C0.390349 1.7986 0.597012 1.7087 0.8125 1.7087H1.76313ZM8.9375 6.82852C8.72201 6.82852 8.51535 6.91842 8.36298 7.07844C8.2106 7.23847 8.125 7.45551 8.125 7.68182C8.125 7.90813 8.2106 8.12517 8.36298 8.28519C8.51535 8.44522 8.72201 8.53512 8.9375 8.53512C9.15299 8.53512 9.35965 8.44522 9.51202 8.28519C9.6644 8.12517 9.75 7.90813 9.75 7.68182C9.75 7.45551 9.6644 7.23847 9.51202 7.07844C9.35965 6.91842 9.15299 6.82852 8.9375 6.82852ZM6.63812 6.82852C6.80599 6.32888 7.11729 5.89622 7.52911 5.59019C7.94094 5.28416 8.43301 5.11982 8.9375 5.11982C9.44199 5.11982 9.93406 5.28416 10.3459 5.59019C10.7577 5.89622 11.069 6.32888 11.2369 6.82852H12.1875C12.403 6.82852 12.6097 6.91842 12.762 7.07844C12.9144 7.23847 13 7.45551 13 7.68182C13 7.90813 12.9144 8.12517 12.762 8.28519C12.6097 8.44522 12.403 8.53512 12.1875 8.53512H11.2369C11.069 9.03476 10.7577 9.46741 10.3459 9.77344C9.93406 10.0795 9.44199 10.2438 8.9375 10.2438C8.43301 10.2438 7.94094 10.0795 7.52911 9.77344C7.11729 9.46741 6.80599 9.03476 6.63812 8.53512H0.8125C0.597012 8.53512 0.390349 8.44522 0.237976 8.28519C0.0856026 8.12517 0 7.90813 0 7.68182C0 7.45551 0.0856026 7.23847 0.237976 7.07844C0.390349 6.91842 0.597012 6.82852 0.8125 6.82852H6.63812ZM4.0625 11.9483C3.84701 11.9483 3.64035 12.0382 3.48798 12.1983C3.3356 12.3583 3.25 12.5753 3.25 12.8016C3.25 13.0279 3.3356 13.245 3.48798 13.405C3.64035 13.565 3.84701 13.6549 4.0625 13.6549C4.27799 13.6549 4.48465 13.565 4.63702 13.405C4.7894 13.245 4.875 13.0279 4.875 12.8016C4.875 12.5753 4.7894 12.3583 4.63702 12.1983C4.48465 12.0382 4.27799 11.9483 4.0625 11.9483ZM1.76313 11.9483C1.93099 11.4487 2.24229 11.016 2.65411 10.71C3.06594 10.404 3.55801 10.2396 4.0625 10.2396C4.56699 10.2396 5.05906 10.404 5.47089 10.71C5.88271 11.016 6.19401 11.4487 6.36188 11.9483H12.1875C12.403 11.9483 12.6097 12.0382 12.762 12.1983C12.9144 12.3583 13 12.5753 13 12.8016C13 13.0279 12.9144 13.245 12.762 13.405C12.6097 13.565 12.403 13.6549 12.1875 13.6549H6.36188C6.19401 14.1546 5.88271 14.5872 5.47089 14.8933C5.05906 15.1993 4.56699 15.3636 4.0625 15.3636C3.55801 15.3636 3.06594 15.1993 2.65411 14.8933C2.24229 14.5872 1.93099 14.1546 1.76313 13.6549H0.8125C0.597012 13.6549 0.390349 13.565 0.237976 13.405C0.0856026 13.245 0 13.0279 0 12.8016C0 12.5753 0.0856026 12.3583 0.237976 12.1983C0.390349 12.0382 0.597012 11.9483 0.8125 11.9483H1.76313Z" fill="#B5B5B5"/>
</svg>
