<svg width="16" height="16" viewBox="0 0 16 16" fill="none" xmlns="http://www.w3.org/2000/svg">
<path d="M16.0001 3.42855V11.6571C16.0001 12.6445 15.4333 13.4947 14.6104 13.9061C14.6196 13.769 14.6286 13.6318 14.6286 13.4855V5.25701C14.6286 3.11751 12.8824 1.37127 10.7429 1.37127L3.09039 1.37142C3.51098 0.557737 4.35206 0 5.33043 0H12.5715C14.4641 0 16.0001 1.53595 16.0001 3.42855ZM10.7428 2.74284H2.51432C1.12731 2.74284 0 3.87015 0 5.25716V13.4857C0 14.8727 1.12731 16 2.51432 16H10.7428C12.1299 16 13.2572 14.8727 13.2572 13.4857V5.25716C13.2572 3.87015 12.1299 2.74284 10.7428 2.74284Z" fill="white"/>
</svg>
