<svg width="16" height="16" viewBox="0 0 16 16" fill="none" xmlns="http://www.w3.org/2000/svg">
<path d="M15.2 2.4H0.8C0.587827 2.4 0.384344 2.48429 0.234315 2.63431C0.0842854 2.78434 0 2.98783 0 3.2C0 3.41217 0.0842854 3.61566 0.234315 3.76569C0.384344 3.91571 0.587827 4 0.8 4H2.4V13.6C2.4 14.2365 2.65286 14.847 3.10294 15.2971C3.55303 15.7471 4.16348 16 4.8 16H11.2C11.8365 16 12.447 15.7471 12.8971 15.2971C13.3471 14.847 13.6 14.2365 13.6 13.6V4H15.2C15.4122 4 15.6157 3.91571 15.7657 3.76569C15.9157 3.61566 16 3.41217 16 3.2C16 2.98783 15.9157 2.78434 15.7657 2.63431C15.6157 2.48429 15.4122 2.4 15.2 2.4ZM7.2 11.2C7.2 11.4122 7.11571 11.6157 6.96569 11.7657C6.81566 11.9157 6.61217 12 6.4 12C6.18783 12 5.98434 11.9157 5.83431 11.7657C5.68429 11.6157 5.6 11.4122 5.6 11.2V7.2C5.6 6.98783 5.68429 6.78434 5.83431 6.63432C5.98434 6.48429 6.18783 6.4 6.4 6.4C6.61217 6.4 6.81566 6.48429 6.96569 6.63432C7.11571 6.78434 7.2 6.98783 7.2 7.2V11.2ZM10.4 11.2C10.4 11.4122 10.3157 11.6157 10.1657 11.7657C10.0157 11.9157 9.81217 12 9.6 12C9.38783 12 9.18434 11.9157 9.03432 11.7657C8.88429 11.6157 8.8 11.4122 8.8 11.2V7.2C8.8 6.98783 8.88429 6.78434 9.03432 6.63432C9.18434 6.48429 9.38783 6.4 9.6 6.4C9.81217 6.4 10.0157 6.48429 10.1657 6.63432C10.3157 6.78434 10.4 6.98783 10.4 7.2V11.2ZM4.61217 1.6H11.3878C11.6 1.6 11.8035 1.51571 11.9535 1.36569C12.1035 1.21566 12.1878 1.01217 12.1878 0.8C12.1878 0.587827 12.1035 0.384344 11.9535 0.234315C11.8035 0.0842854 11.6 0 11.3878 0H4.61217C4.4 0 4.19652 0.0842854 4.04649 0.234315C3.89646 0.384344 3.81217 0.587827 3.81217 0.8C3.81217 1.01217 3.89646 1.21566 4.04649 1.36569C4.19652 1.51571 4.4 1.6 4.61217 1.6Z" fill="white"/>
</svg>
