<?xml version="1.0" encoding="utf-8"?>
<!-- Generator: Adobe Illustrator 26.0.1, SVG Export Plug-In . SVG Version: 6.00 Build 0)  -->
<svg version="1.1" id="Layer_1" xmlns:svgjs="http://svgjs.com/svgjs"
	 xmlns="http://www.w3.org/2000/svg" xmlns:xlink="http://www.w3.org/1999/xlink" x="0px" y="0px" viewBox="0 0 24 24"
	 style="enable-background:new 0 0 24 24;" xml:space="preserve">
<style type="text/css">
	.st0{fill:#FFFFFF;}
</style>
<g>
	<path class="st0" d="M1.3,12.7l4,4c0.4,0.4,1,0.4,1.4,0c0.4-0.4,0.4-1,0-1.4c0,0,0,0,0,0L3.4,12l3.3-3.3c0.4-0.4,0.4-1,0-1.4
		c-0.4-0.4-1-0.4-1.4,0c0,0,0,0,0,0l-4,4C0.9,11.7,0.9,12.3,1.3,12.7z M18.7,7.3c-0.4-0.4-1-0.4-1.4,0s-0.4,1,0,1.4c0,0,0,0,0,0
		l3.3,3.3l-3.3,3.3c-0.4,0.4-0.4,1,0,1.4c0.4,0.4,1,0.4,1.4,0c0,0,0,0,0,0l4-4c0.4-0.4,0.4-1,0-1.4L18.7,7.3z M13,4.7l-4,14
		c-0.2,0.5,0.2,1.1,0.7,1.2c0.1,0,0.2,0,0.3,0c0.4,0,0.8-0.3,1-0.7l4-14c0.2-0.5-0.1-1.1-0.6-1.3C13.8,3.8,13.2,4.1,13,4.7
		C13.1,4.7,13,4.7,13,4.7z"/>
</g>
</svg>
