<svg width="20" height="16" viewBox="0 0 20 16" fill="none" xmlns="http://www.w3.org/2000/svg">
<path d="M0.8 4.4C1.01217 4.4 1.21566 4.31571 1.36569 4.16569C1.51571 4.01566 1.6 3.81217 1.6 3.6V2.4C1.6 1.9584 1.9592 1.6 2.4 1.6H3.6C3.81217 1.6 4.01566 1.51571 4.16569 1.36569C4.31571 1.21566 4.4 1.01217 4.4 0.8C4.4 0.587827 4.31571 0.384344 4.16569 0.234315C4.01566 0.0842854 3.81217 0 3.6 0H2.4C1.0768 0 0 1.0768 0 2.4V3.6C0 3.81217 0.0842855 4.01566 0.234315 4.16569C0.384344 4.31571 0.587827 4.4 0.8 4.4ZM16.8 0H15.6C15.3878 0 15.1843 0.0842854 15.0343 0.234315C14.8843 0.384344 14.8 0.587827 14.8 0.8C14.8 1.01217 14.8843 1.21566 15.0343 1.36569C15.1843 1.51571 15.3878 1.6 15.6 1.6H16.8C17.2408 1.6 17.6 1.9584 17.6 2.4V3.6C17.6 3.81217 17.6843 4.01566 17.8343 4.16569C17.9843 4.31571 18.1878 4.4 18.4 4.4C18.6122 4.4 18.8157 4.31571 18.9657 4.16569C19.1157 4.01566 19.2 3.81217 19.2 3.6V2.4C19.2 1.0768 18.1232 0 16.8 0ZM0 13.6C0 14.9232 1.0768 16 2.4 16H3.6C3.81217 16 4.01566 15.9157 4.16569 15.7657C4.31571 15.6157 4.4 15.4122 4.4 15.2C4.4 14.9878 4.31571 14.7843 4.16569 14.6343C4.01566 14.4843 3.81217 14.4 3.6 14.4H2.4C1.9592 14.4 1.6 14.0416 1.6 13.6V12.4C1.6 12.1878 1.51571 11.9843 1.36569 11.8343C1.21566 11.6843 1.01217 11.6 0.8 11.6C0.587827 11.6 0.384344 11.6843 0.234315 11.8343C0.0842855 11.9843 0 12.1878 0 12.4V13.6ZM18.4 11.6C18.1878 11.6 17.9843 11.6843 17.8343 11.8343C17.6843 11.9843 17.6 12.1878 17.6 12.4V13.6C17.6 14.0416 17.2408 14.4 16.8 14.4H15.6C15.3878 14.4 15.1843 14.4843 15.0343 14.6343C14.8843 14.7843 14.8 14.9878 14.8 15.2C14.8 15.4122 14.8843 15.6157 15.0343 15.7657C15.1843 15.9157 15.3878 16 15.6 16H16.8C18.1232 16 19.2 14.9232 19.2 13.6V12.4C19.2 12.1878 19.1157 11.9843 18.9657 11.8343C18.8157 11.6843 18.6122 11.6 18.4 11.6ZM9.5992 12.856C12.6792 12.856 15.3032 10.92 15.9832 8.144C16.0072 8.048 16.0072 7.952 15.9832 7.856C15.3032 5.08 12.6792 3.144 9.5992 3.144C6.5192 3.144 3.8952 5.08 3.2152 7.856C3.1912 7.952 3.1912 8.048 3.2152 8.144C3.8952 10.92 6.5192 12.856 9.5992 12.856ZM9.5992 5.6C10.9192 5.6 11.9992 6.68 11.9992 8C11.9992 9.32 10.9192 10.4 9.5992 10.4C8.2792 10.4 7.1992 9.32 7.1992 8C7.1992 6.68 8.2792 5.6 9.5992 5.6Z" fill="white"/>
</svg>
