<?xml version="1.0" encoding="UTF-8"?><svg xmlns="http://www.w3.org/2000/svg" viewBox="0 0 47.05 14.4"><defs><style>.d,.e{fill:#fff;}.f{letter-spacing:-.04em;}.g{isolation:isolate;}.h{fill:#5c5424;}.i{letter-spacing:-.02em;}.j{fill:#404bff;}.k{mix-blend-mode:multiply;opacity:.5;}.e{font-family:Montserrat-ExtraBold, Montserrat;font-size:4.23px;}</style></defs><g class="g"><g id="a"/><g id="b"><g id="c"><g><path class="j" d="M44.93,0H2.11C.95,0,0,.95,0,2.11v7.67c0,1.17,.95,2.11,2.11,2.11H19.27c.56,0,1.1,.22,1.49,.62l1.27,1.27c.83,.83,2.16,.83,2.99,0l1.27-1.27c.4-.4,.93-.62,1.49-.62h17.15c1.17,0,2.11-.95,2.11-2.11V2.11c0-1.17-.95-2.11-2.11-2.11Z"/><g><g class="k"><path class="h" d="M23.52,13.94c-.41,0-.8-.16-1.09-.45l-1.27-1.27c-.51-.51-1.18-.79-1.9-.79H2.11c-.85,0-1.54-.69-1.54-1.54V2.23c0-.85,.69-1.54,1.54-1.54H44.93c.85,0,1.54,.69,1.54,1.54v7.67c0,.85-.69,1.54-1.54,1.54H27.78c-.72,0-1.39,.28-1.9,.79l-1.27,1.27c-.29,.29-.68,.45-1.09,.45ZM2.11,1.38c-.47,0-.84,.38-.84,.84v7.67c0,.47,.38,.84,.84,.84H19.27c.9,0,1.75,.35,2.39,.99l1.27,1.27c.32,.32,.87,.32,1.19,0l1.27-1.27c.64-.64,1.49-.99,2.39-.99h17.15c.47,0,.84-.38,.84-.84V2.23c0-.47-.38-.84-.84-.84H2.11Z"/></g><path class="d" d="M23.52,13.71c-.41,0-.8-.16-1.09-.45l-1.27-1.27c-.51-.51-1.18-.79-1.9-.79H2.11c-.85,0-1.54-.69-1.54-1.54V2C.58,1.15,1.27,.46,2.11,.46H44.93c.85,0,1.54,.69,1.54,1.54v7.67c0,.85-.69,1.54-1.54,1.54H27.78c-.72,0-1.39,.28-1.9,.79l-1.27,1.27c-.29,.29-.68,.45-1.09,.45ZM2.11,1.15c-.47,0-.84,.38-.84,.84v7.67c0,.47,.38,.84,.84,.84H19.27c.9,0,1.75,.35,2.39,.99l1.27,1.27c.32,.32,.88,.32,1.19,0l1.27-1.27c.64-.64,1.49-.99,2.39-.99h17.15c.47,0,.84-.38,.84-.84V2c0-.47-.38-.84-.84-.84H2.11Z"/></g><g><polygon class="d" points="12.47 8.33 10.51 6.19 8.54 8.33 8.54 3.43 12.47 3.43 12.47 8.33"/><text class="e" transform="translate(15.09 7.3)"><tspan x="0" y="0">S</tspan><tspan class="f" x="2.74" y="0">A</tspan><tspan class="i" x="5.9" y="0">V</tspan><tspan x="9.07" y="0">E THIS</tspan></text></g></g></g></g></g></svg>