<?xml version="1.0" encoding="UTF-8"?><svg xmlns="http://www.w3.org/2000/svg" viewBox="0 0 54.66 12.47"><defs><style>.d{fill:#65eae6;}.e{letter-spacing:-.01em;}.f{fill:#25ced6;}.g{letter-spacing:-.04em;}.h{fill:#fff;font-family:Montserrat-ExtraBold, Montserrat;font-size:4.67px;}</style></defs><g id="a"/><g id="b"><g id="c"><g><path class="f" d="M4.43,12.47c-.72,0-1.4-.39-1.76-1.02L.27,7.3c-.36-.63-.36-1.4,0-2.03L2.67,1.11C3.03,.48,3.71,.09,4.43,.09H15.71c.34,0,.51,.23,.57,.33,.06,.1,.17,.36,0,.66l-5.54,9.59c-.64,1.11-1.84,1.81-3.13,1.81h-3.18Z"/><path class="f" d="M12.62,12.38c-.34,0-.51-.23-.57-.33-.06-.1-.17-.36,0-.66L17.59,1.81c.64-1.11,1.84-1.81,3.13-1.81h29.52c.72,0,1.4,.39,1.76,1.02l2.4,4.16c.36,.63,.36,1.4,0,2.03l-2.4,4.16c-.36,.63-1.04,1.02-1.76,1.02H12.62Z"/><text class="h" transform="translate(18.84 7.64)"><tspan x="0" y="0">S</tspan><tspan class="g" x="3.02" y="0">A</tspan><tspan class="e" x="6.51" y="0">V</tspan><tspan x="10.01" y="0">E THIS</tspan></text><polygon class="d" points="9.67 9.11 7.51 6.74 5.34 9.11 5.34 3.7 9.67 3.7 9.67 9.11"/></g></g></g></svg>