<?xml version="1.0" encoding="UTF-8"?><svg xmlns="http://www.w3.org/2000/svg" viewBox="0 0 50.67 16.56"><defs><style>.d,.e{fill:#fff;}.f{letter-spacing:-.01em;}.g{letter-spacing:-.04em;}.e{font-family:Montserrat-ExtraBold, Montserrat;font-size:4.67px;}.h{fill:#f8b400;}</style></defs><g id="a"/><g id="b"><g id="c"><g><path class="h" d="M48.3,0H2.38C1.07,0,0,1.07,0,2.38V10.93c0,1.31,1.07,2.38,2.38,2.38H22.4l2.31,2.98c.28,.36,.97,.36,1.25,0l2.31-2.98h20.03c1.31,0,2.38-1.07,2.38-2.38V2.38c0-1.31-1.07-2.38-2.38-2.38Z"/><polygon class="d" points="13.14 9.15 10.98 6.79 8.81 9.15 8.81 3.74 13.14 3.74 13.14 9.15"/><text class="e" transform="translate(16.03 8.01)"><tspan x="0" y="0">S</tspan><tspan class="g" x="3.02" y="0">A</tspan><tspan class="f" x="6.51" y="0">V</tspan><tspan x="10.01" y="0">E THIS</tspan></text></g></g></g></svg>