<?xml version="1.0" encoding="UTF-8"?><svg xmlns="http://www.w3.org/2000/svg" viewBox="0 0 54.66 11.58"><defs><style>.d{fill:#8479e1;}.e,.f{fill:#fff;}.g{letter-spacing:-.01em;}.h{letter-spacing:-.04em;}.f{font-family:Montserrat-ExtraBold, Montserrat;font-size:4.67px;}</style></defs><g id="a"/><g id="b"><g id="c"><g><g><circle class="d" cx="5.79" cy="5.79" r="5.79" transform="translate(-2.4 5.79) rotate(-45)"/><path class="d" d="M11.96,11.58c-.82,0-1.3-.95-.8-1.59,.91-1.16,1.45-2.62,1.45-4.2s-.54-3.04-1.45-4.2c-.51-.65-.02-1.59,.8-1.59H48.73c3.13,0,5.81,2.43,5.93,5.57,.12,3.29-2.52,6.01-5.78,6.01H11.96Z"/></g><text class="f" transform="translate(17.84 7.46)"><tspan x="0" y="0">S</tspan><tspan class="h" x="3.02" y="0">A</tspan><tspan class="g" x="6.51" y="0">V</tspan><tspan x="10.01" y="0">E THIS</tspan></text><polygon class="e" points="7.96 8.49 5.79 6.13 3.62 8.49 3.62 3.08 7.96 3.08 7.96 8.49"/></g></g></g></svg>