<?xml version="1.0" encoding="UTF-8"?><svg xmlns="http://www.w3.org/2000/svg" viewBox="0 0 58.67 13.31"><defs><style>.d{fill:#ff5c8b;}.e,.f{fill:#fff;}.g{letter-spacing:-.01em;}.h{letter-spacing:-.04em;}.f{font-family:Montserrat-ExtraBold, Montserrat;font-size:4.67px;}</style></defs><g id="a"/><g id="b"><g id="c"><g><g><path class="e" d="M41.73,0h10.29c3.66,0,6.65,2.99,6.65,6.65h0c0,3.66-2.99,6.65-6.65,6.65h-10.63l7.43-6.81L41.73,0Z"/><path class="d" d="M22.4,13.31H6.65C2.99,13.31,0,10.31,0,6.65S2.99,0,6.65,0H41.73l7.09,6.5-7.43,6.81H22.4Z"/></g><text class="f" transform="translate(8.87 8.01)"><tspan x="0" y="0">S</tspan><tspan class="h" x="3.02" y="0">A</tspan><tspan class="g" x="6.51" y="0">V</tspan><tspan x="10.01" y="0">E THIS</tspan></text><polygon class="d" points="55.08 9.36 52.92 6.99 50.75 9.36 50.75 3.95 55.08 3.95 55.08 9.36"/></g></g></g></svg>