<?xml version="1.0" encoding="UTF-8"?><svg xmlns="http://www.w3.org/2000/svg" viewBox="0 0 47.05 14.4"><defs><style>.d,.e{fill:#fff;}.f{fill:#8a5bff;}.g{isolation:isolate;}.e{font-family:Montserrat-ExtraBold, Montserrat;font-size:4.08px;}.h{mix-blend-mode:multiply;opacity:.5;}.i{fill:#575c2c;}</style></defs><g class="g"><g id="a"/><g id="b"><g id="c"><g><path class="f" d="M44.93,0H2.11C.95,0,0,.95,0,2.11v7.67c0,1.17,.95,2.11,2.11,2.11H19.27c.56,0,1.1,.22,1.49,.62l1.27,1.27c.83,.83,2.16,.83,2.99,0l1.27-1.27c.4-.4,.93-.62,1.49-.62h17.15c1.17,0,2.11-.95,2.11-2.11V2.11c0-1.17-.95-2.11-2.11-2.11Z"/><g><g class="h"><path class="i" d="M23.52,13.94c-.41,0-.8-.16-1.09-.45l-1.27-1.27c-.51-.51-1.18-.79-1.9-.79H2.11c-.85,0-1.54-.69-1.54-1.54V2.23c0-.85,.69-1.54,1.54-1.54H44.93c.85,0,1.54,.69,1.54,1.54v7.67c0,.85-.69,1.54-1.54,1.54H27.78c-.72,0-1.39,.28-1.9,.79l-1.27,1.27c-.29,.29-.68,.45-1.09,.45ZM2.11,1.38c-.47,0-.84,.38-.84,.84v7.67c0,.47,.38,.84,.84,.84H19.27c.9,0,1.75,.35,2.39,.99l1.27,1.27c.32,.32,.87,.32,1.19,0l1.27-1.27c.64-.64,1.49-.99,2.39-.99h17.15c.47,0,.84-.38,.84-.84V2.23c0-.47-.38-.84-.84-.84H2.11Z"/></g><path class="d" d="M23.52,13.71c-.41,0-.8-.16-1.09-.45l-1.27-1.27c-.51-.51-1.18-.79-1.9-.79H2.11c-.85,0-1.54-.69-1.54-1.54V2C.58,1.15,1.27,.46,2.11,.46H44.93c.85,0,1.54,.69,1.54,1.54v7.67c0,.85-.69,1.54-1.54,1.54H27.78c-.72,0-1.39,.28-1.9,.79l-1.27,1.27c-.29,.29-.68,.45-1.09,.45ZM2.11,1.15c-.47,0-.84,.38-.84,.84v7.67c0,.47,.38,.84,.84,.84H19.27c.9,0,1.75,.35,2.39,.99l1.27,1.27c.32,.32,.88,.32,1.19,0l1.27-1.27c.64-.64,1.49-.99,2.39-.99h17.15c.47,0,.84-.38,.84-.84V2c0-.47-.38-.84-.84-.84H2.11Z"/></g><path class="d" d="M12.44,4.13c0,.39-.32,.71-.71,.71s-.71-.32-.71-.71,.32-.71,.71-.71,.71,.32,.71,.71Zm-.71,.88c-.48,0-.87-.39-.87-.88s.39-.87,.87-.87,.87,.39,.87,.87-.39,.88-.87,.88Zm0-1.42c-.3,0-.55,.25-.55,.55s.25,.55,.55,.55,.55-.25,.55-.55-.25-.55-.55-.55Zm.71,4.05c0,.39-.32,.71-.71,.71s-.71-.32-.71-.71,.32-.71,.71-.71,.71,.32,.71,.71Zm-.71,.87c-.48,0-.87-.39-.87-.87s.39-.88,.87-.88,.87,.39,.87,.88-.39,.87-.87,.87Zm0-1.42c-.3,0-.55,.25-.55,.55s.25,.55,.55,.55,.55-.25,.55-.55-.25-.55-.55-.55Zm-2.35-1.2c0,.39-.32,.71-.71,.71s-.71-.32-.71-.71,.32-.71,.71-.71,.71,.32,.71,.71Zm-.71,.87c-.48,0-.87-.39-.87-.87s.39-.87,.87-.87,.88,.39,.88,.87-.39,.87-.88,.87Zm0-1.42c-.3,0-.55,.25-.55,.55s.25,.55,.55,.55,.55-.25,.55-.55-.25-.55-.55-.55Zm.52,.44c-.08,0-.15-.04-.19-.11-.06-.1-.02-.24,.08-.3l2.03-1.16c.1-.06,.24-.02,.3,.08,.06,.1,.02,.24-.08,.3l-2.03,1.16s-.07,.03-.11,.03Zm2.03,1.8s-.07,0-.11-.03l-2.03-1.16c-.1-.06-.14-.19-.08-.3,.06-.1,.19-.14,.3-.08l2.03,1.16c.1,.06,.14,.19,.08,.3-.04,.07-.11,.11-.19,.11Z"/><text class="e" transform="translate(15.23 7.3)"><tspan x="0" y="0">SHARE THIS</tspan></text></g></g></g></g></svg>