<?xml version="1.0" encoding="UTF-8"?><svg xmlns="http://www.w3.org/2000/svg" viewBox="0 0 58.67 13.31"><defs><style>.d,.e{fill:#fff;}.f{fill:#25ced6;}.e{font-family:Montserrat-ExtraBold, Montserrat;font-size:4.67px;}</style></defs><g id="a"/><g id="b"><g id="c"><g><g><path class="d" d="M41.73,0h10.29c3.66,0,6.65,2.99,6.65,6.65h0c0,3.66-2.99,6.65-6.65,6.65h-10.63l7.43-6.81L41.73,0Z"/><path class="f" d="M22.4,13.31H6.65C2.99,13.31,0,10.31,0,6.65S2.99,0,6.65,0H41.73l7.09,6.5-7.43,6.81H22.4Z"/></g><path class="f" d="M51.17,3.84c.45,0,.81,.36,.81,.81s-.36,.81-.81,.81-.81-.36-.81-.81,.36-.81,.81-.81Zm-1,.81c0-.55,.45-1,1-1s1,.45,1,1-.45,1-1,1-1-.45-1-1Zm.38,0c0,.34,.28,.63,.62,.63s.62-.28,.62-.63-.28-.62-.62-.62-.62,.28-.62,.62Zm.62,3.19c.45,0,.81,.36,.81,.81s-.36,.81-.81,.81-.81-.36-.81-.81,.36-.81,.81-.81Zm-1,.81c0-.55,.45-1,1-1s1,.45,1,1-.45,1-1,1-1-.45-1-1Zm.38,0c0,.34,.28,.62,.62,.62s.62-.28,.62-.62-.28-.63-.62-.63-.62,.28-.62,.63Zm4.13-2.81c.45,0,.81,.36,.81,.81s-.36,.81-.81,.81-.81-.36-.81-.81,.36-.81,.81-.81Zm-1,.81c0-.55,.45-1,1-1s1,.45,1,1-.45,1-1,1-1-.45-1-1Zm.38,0c0,.34,.28,.62,.63,.62s.62-.28,.62-.62c0-.34-.28-.62-.62-.62s-.63,.28-.63,.62Zm-.09-.15l-2.32-1.32c-.12-.07-.16-.22-.09-.34,.07-.12,.22-.16,.34-.09l2.32,1.32c.12,.07,.16,.22,.09,.34-.05,.08-.13,.13-.22,.13-.04,0-.08-.01-.12-.03Zm-2.41,1.97c-.07-.12-.03-.27,.09-.34l2.32-1.32c.12-.07,.27-.03,.34,.09,.07,.12,.03,.27-.09,.34l-2.32,1.32s-.08,.03-.12,.03c-.09,0-.17-.05-.22-.13Z"/><text class="e" transform="translate(8.87 8.1)"><tspan x="0" y="0">SHARE THIS</tspan></text></g></g></g></svg>