<?xml version="1.0" encoding="UTF-8"?><svg xmlns="http://www.w3.org/2000/svg" viewBox="0 0 50.67 16.56"><defs><style>.d,.e{fill:#fff;}.f{fill:#ab46d2;}.e{font-family:Montserrat-ExtraBold, Montserrat;font-size:4.67px;}</style></defs><g id="a"/><g id="b"><g id="c"><g><path class="f" d="M48.3,0H2.38C1.07,0,0,1.07,0,2.38V10.93c0,1.31,1.07,2.38,2.38,2.38H22.4l2.31,2.98c.28,.36,.97,.36,1.25,0l2.31-2.98h20.03c1.31,0,2.38-1.07,2.38-2.38V2.38c0-1.31-1.07-2.38-2.38-2.38Z"/><path class="d" d="M11.58,4.38c0,.45-.36,.81-.81,.81s-.81-.36-.81-.81,.36-.81,.81-.81,.81,.36,.81,.81Zm-.81,1c-.55,0-1-.45-1-1s.45-1,1-1,1,.45,1,1-.45,1-1,1Zm0-1.63c-.34,0-.62,.28-.62,.62s.28,.63,.62,.63,.62-.28,.62-.63-.28-.62-.62-.62Zm.81,4.63c0,.45-.36,.81-.81,.81s-.81-.36-.81-.81,.36-.81,.81-.81,.81,.36,.81,.81Zm-.81,1c-.55,0-1-.45-1-1s.45-1,1-1,1,.45,1,1-.45,1-1,1Zm0-1.63c-.34,0-.62,.28-.62,.63s.28,.62,.62,.62,.62-.28,.62-.62-.28-.63-.62-.63Zm-2.69-1.37c0,.45-.36,.81-.81,.81s-.81-.36-.81-.81,.36-.81,.81-.81,.81,.36,.81,.81Zm-.81,1c-.55,0-1-.45-1-1s.45-1,1-1,1,.45,1,1-.45,1-1,1Zm0-1.62c-.34,0-.62,.28-.62,.62s.28,.62,.62,.62,.63-.28,.63-.62-.28-.62-.63-.62Zm.59,.51c-.09,0-.17-.05-.22-.13-.07-.12-.03-.27,.09-.34l2.32-1.32c.12-.07,.27-.03,.34,.09,.07,.12,.03,.27-.09,.34l-2.32,1.32s-.08,.03-.12,.03Zm2.32,2.06s-.08-.01-.12-.03l-2.32-1.32c-.12-.07-.16-.22-.09-.34,.07-.12,.22-.16,.34-.09l2.32,1.32c.12,.07,.16,.22,.09,.34-.05,.08-.13,.13-.22,.13Z"/><text class="e" transform="translate(14.77 8.01)"><tspan x="0" y="0">SHARE THIS</tspan></text></g></g></g></svg>