<?xml version="1.0" encoding="UTF-8"?><svg xmlns="http://www.w3.org/2000/svg" viewBox="0 0 54.66 11.58"><defs><style>.d{fill:#ff5c8b;}.e,.f{fill:#fff;}.f{font-family:Montserrat-ExtraBold, Montserrat;font-size:4.67px;}</style></defs><g id="a"/><g id="b"><g id="c"><g><g><circle class="d" cx="5.79" cy="5.79" r="5.79" transform="translate(-2.4 5.79) rotate(-45)"/><path class="d" d="M11.96,11.58c-.82,0-1.3-.95-.8-1.59,.91-1.16,1.45-2.62,1.45-4.2s-.54-3.04-1.45-4.2c-.51-.65-.02-1.59,.8-1.59H48.73c3.13,0,5.81,2.43,5.93,5.57,.12,3.29-2.52,6.01-5.78,6.01H11.96Z"/></g><path class="e" d="M7.72,3.79c0,.45-.36,.81-.81,.81s-.81-.36-.81-.81,.36-.81,.81-.81,.81,.36,.81,.81Zm-.81,1c-.55,0-1-.45-1-1s.45-1,1-1,1,.45,1,1-.45,1-1,1Zm0-1.63c-.34,0-.62,.28-.62,.62s.28,.63,.62,.63,.62-.28,.62-.63-.28-.62-.62-.62Zm.81,4.63c0,.45-.36,.81-.81,.81s-.81-.36-.81-.81,.36-.81,.81-.81,.81,.36,.81,.81Zm-.81,1c-.55,0-1-.45-1-1s.45-1,1-1,1,.45,1,1-.45,1-1,1Zm0-1.63c-.34,0-.62,.28-.62,.63s.28,.62,.62,.62,.62-.28,.62-.62-.28-.63-.62-.63Zm-2.69-1.37c0,.45-.36,.81-.81,.81s-.81-.36-.81-.81,.36-.81,.81-.81,.81,.36,.81,.81Zm-.81,1c-.55,0-1-.45-1-1s.45-1,1-1,1,.45,1,1-.45,1-1,1Zm0-1.62c-.34,0-.62,.28-.62,.62s.28,.62,.62,.62,.63-.28,.63-.62-.28-.62-.63-.62Zm.59,.51c-.09,0-.17-.05-.22-.13-.07-.12-.03-.27,.09-.34l2.32-1.32c.12-.07,.27-.03,.34,.09,.07,.12,.03,.27-.09,.34l-2.32,1.32s-.08,.03-.12,.03Zm2.32,2.06s-.08-.01-.12-.03l-2.32-1.32c-.12-.07-.16-.22-.09-.34,.07-.12,.22-.16,.34-.09l2.32,1.32c.12,.07,.16,.22,.09,.34-.05,.08-.13,.13-.22,.13Z"/><text class="f" transform="translate(17.4 7.46)"><tspan x="0" y="0">SHARE THIS</tspan></text></g></g></g></svg>