<?xml version="1.0" encoding="UTF-8"?><svg xmlns="http://www.w3.org/2000/svg" viewBox="0 0 54.66 12.47"><defs><style>.d{fill:#069a8e;}.e{fill:#27c1b2;}.f{fill:#fff;font-family:Montserrat-ExtraBold, Montserrat;font-size:4.67px;}</style></defs><g id="a"/><g id="b"><g id="c"><g><path class="d" d="M4.43,12.47c-.72,0-1.4-.39-1.76-1.02L.27,7.3c-.36-.63-.36-1.4,0-2.03L2.67,1.11C3.03,.48,3.71,.09,4.43,.09H15.71c.34,0,.51,.23,.57,.33,.06,.1,.17,.36,0,.66l-5.54,9.59c-.64,1.11-1.84,1.81-3.13,1.81h-3.18Z"/><path class="d" d="M12.62,12.38c-.34,0-.51-.23-.57-.33-.06-.1-.17-.36,0-.66L17.59,1.81c.64-1.11,1.84-1.81,3.13-1.81h29.52c.72,0,1.4,.39,1.76,1.02l2.4,4.16c.36,.63,.36,1.4,0,2.03l-2.4,4.16c-.36,.63-1.04,1.02-1.76,1.02H12.62Z"/><path class="e" d="M8.66,4.28c0,.45-.36,.81-.81,.81s-.81-.36-.81-.81,.36-.81,.81-.81,.81,.36,.81,.81Zm-.81,1c-.55,0-1-.45-1-1s.45-1,1-1,1,.45,1,1-.45,1-1,1Zm0-1.63c-.34,0-.62,.28-.62,.62s.28,.63,.62,.63,.62-.28,.62-.63-.28-.62-.62-.62Zm.81,4.63c0,.45-.36,.81-.81,.81s-.81-.36-.81-.81,.36-.81,.81-.81,.81,.36,.81,.81Zm-.81,1c-.55,0-1-.45-1-1s.45-1,1-1,1,.45,1,1-.45,1-1,1Zm0-1.63c-.34,0-.62,.28-.62,.63s.28,.62,.62,.62,.62-.28,.62-.62-.28-.63-.62-.63Zm-2.69-1.37c0,.45-.36,.81-.81,.81s-.81-.36-.81-.81,.36-.81,.81-.81,.81,.36,.81,.81Zm-.81,1c-.55,0-1-.45-1-1s.45-1,1-1,1,.45,1,1-.45,1-1,1Zm0-1.62c-.34,0-.62,.28-.62,.62s.28,.62,.62,.62,.63-.28,.63-.62-.28-.62-.63-.62Zm.59,.51c-.09,0-.17-.05-.22-.13-.07-.12-.03-.27,.09-.34l2.32-1.32c.12-.07,.27-.03,.34,.09,.07,.12,.03,.27-.09,.34l-2.32,1.32s-.08,.03-.12,.03Zm2.32,2.06s-.08-.01-.12-.03l-2.32-1.32c-.12-.07-.16-.22-.09-.34,.07-.12,.22-.16,.34-.09l2.32,1.32c.12,.07,.16,.22,.09,.34-.05,.08-.13,.13-.22,.13Z"/><text class="f" transform="translate(18.84 7.64)"><tspan x="0" y="0">SHARE THIS</tspan></text></g></g></g></svg>