<?xml version="1.0" encoding="utf-8"?>
<!-- Generator: Adobe Illustrator 21.1.0, SVG Export Plug-In . SVG Version: 6.00 Build 0)  -->
<svg version="1.1" id="Layer_1" xmlns="http://www.w3.org/2000/svg" xmlns:xlink="http://www.w3.org/1999/xlink" x="0px" y="0px"
	 viewBox="0 0 380 575.4" style="enable-background:new 0 0 380 575.4;" xml:space="preserve">
<style type="text/css">
	.st0{fill:#171617;}
	.st1{fill:#111111;}
	.st2{fill:url(#SVGID_1_);}
	.st3{fill:url(#SVGID_2_);}
	.st4{fill:url(#SVGID_3_);}
	.st5{fill:url(#SVGID_4_);}
	.st6{fill:url(#SVGID_5_);}
	.st7{fill:url(#SVGID_6_);}
	.st8{font-family:'MyriadPro-Regular';}
	.st9{font-size:12.9374px;}
	.st10{fill:url(#SVGID_7_);}
	.st11{fill:url(#SVGID_8_);}
	.st12{fill:#00844A;}
	.st13{fill:#009E59;}
	.st14{fill:url(#SVGID_9_);}
	.st15{fill:url(#SVGID_10_);}
	.st16{fill:#282828;}
	.st17{fill:url(#SVGID_11_);}
	.st18{fill:url(#SVGID_12_);}
	.st19{fill:url(#SVGID_13_);}
	.st20{fill:url(#SVGID_14_);}
	.st21{fill:url(#SVGID_15_);}
	.st22{fill:url(#SVGID_16_);}
	.st23{fill:url(#SVGID_17_);}
	.st24{fill:url(#SVGID_18_);}
	.st25{fill:#0AAD61;}
	.st26{fill:url(#SVGID_19_);}
	.st27{fill:url(#SVGID_20_);}
	.st28{fill:url(#SVGID_21_);}
	.st29{fill:url(#SVGID_22_);}
	.st30{fill:url(#SVGID_23_);}
	.st31{fill:url(#SVGID_24_);}
	.st32{fill:#FFFFFF;}
	.st33{fill:url(#SVGID_25_);}
	.st34{fill:url(#SVGID_26_);}
	.st35{opacity:0.4;fill:url(#SVGID_27_);}
	.st36{opacity:0.4;fill:url(#SVGID_28_);}
	.st37{fill:#FDBB4B;}
	.st38{fill:url(#SVGID_29_);}
	.st39{fill:url(#SVGID_30_);}
</style>
<g>
	<polygon class="st0" points="244.5,0 53.2,77.7 196.3,199.4 380,135 	"/>
	<polygon points="314.8,137 315.9,148.3 325.3,171.9 332.5,157 	"/>
	<path class="st1" d="M110.2,401c0,0,19.6,30.7,30.5,35c10.8,4.3,37.6-25.3,37.6-25.3l-2.8-13.4c0,0-25.6-9.9-42-11.2
		C117,384.9,110.2,401,110.2,401z"/>
	
		<linearGradient id="SVGID_1_" gradientUnits="userSpaceOnUse" x1="187.3805" y1="90.5283" x2="174.609" y2="90.5283" gradientTransform="matrix(1.0531 0 0 1.0531 82.5026 236.0097)">
		<stop  offset="0" style="stop-color:#0AAD61"/>
		<stop  offset="0.246" style="stop-color:#09A95F"/>
		<stop  offset="0.5122" style="stop-color:#079C5A"/>
		<stop  offset="0.7868" style="stop-color:#048652"/>
		<stop  offset="1" style="stop-color:#00704A"/>
	</linearGradient>
	<path class="st2" d="M272.3,314.5c0,0,13.5,13.5,11.4,19.5c-2,6.1-20.2,14.1-20.2,14.1L272.3,314.5z"/>
	
		<linearGradient id="SVGID_2_" gradientUnits="userSpaceOnUse" x1="195.4588" y1="120.2445" x2="175.6563" y2="122.1609" gradientTransform="matrix(1.0531 0 0 1.0531 82.5026 236.0097)">
		<stop  offset="0" style="stop-color:#0AAD61"/>
		<stop  offset="0.304" style="stop-color:#09A95F"/>
		<stop  offset="0.6329" style="stop-color:#069C57"/>
		<stop  offset="0.9724" style="stop-color:#01864B"/>
		<stop  offset="1" style="stop-color:#00844A"/>
	</linearGradient>
	<path class="st3" d="M267.8,347.4c0,0,15.8,10.6,15,16.9c-0.8,6.3-17.1,17.8-17.1,17.8L267.8,347.4z"/>
	
		<linearGradient id="SVGID_3_" gradientUnits="userSpaceOnUse" x1="75.1955" y1="502.7483" x2="55.3962" y2="504.6643" gradientTransform="matrix(0.9754 -0.397 0.397 0.9754 15.7114 -75.5807)">
		<stop  offset="0" style="stop-color:#0AAD61"/>
		<stop  offset="0.304" style="stop-color:#09A95F"/>
		<stop  offset="0.6329" style="stop-color:#069C57"/>
		<stop  offset="0.9724" style="stop-color:#01864B"/>
		<stop  offset="1" style="stop-color:#00844A"/>
	</linearGradient>
	<path class="st4" d="M262.4,379.4c0,0,18.6,3.9,20.3,10c1.6,6.2-9.1,22.9-9.1,22.9L262.4,379.4z"/>
	
		<linearGradient id="SVGID_4_" gradientUnits="userSpaceOnUse" x1="199.2878" y1="163.0544" x2="191.6242" y2="179.0209" gradientTransform="matrix(1.0531 0 0 1.0531 82.5026 236.0097)">
		<stop  offset="0" style="stop-color:#0AAD61"/>
		<stop  offset="0.2418" style="stop-color:#09A95F"/>
		<stop  offset="0.5034" style="stop-color:#079C5B"/>
		<stop  offset="0.7733" style="stop-color:#048653"/>
		<stop  offset="1" style="stop-color:#006E4A"/>
	</linearGradient>
	<path class="st5" d="M268.6,417.1c0,0,16.1-10.1,21.6-6.7c5.4,3.3,9.2,22.8,9.2,22.8L268.6,417.1z"/>
	
		<linearGradient id="SVGID_5_" gradientUnits="userSpaceOnUse" x1="-120.8997" y1="784.3682" x2="-128.5715" y2="800.3516" gradientTransform="matrix(0.805 -0.679 0.679 0.805 -127.8342 -301.1362)">
		<stop  offset="0" style="stop-color:#0AAD61"/>
		<stop  offset="0.2252" style="stop-color:#09A960"/>
		<stop  offset="0.4689" style="stop-color:#089C5B"/>
		<stop  offset="0.7211" style="stop-color:#058655"/>
		<stop  offset="0.9779" style="stop-color:#00684B"/>
		<stop  offset="1" style="stop-color:#00654A"/>
	</linearGradient>
	<path class="st6" d="M295,433.8c0,0,5.9-18.1,12.2-19.1c6.3-0.9,21.8,11.6,21.8,11.6L295,433.8z"/>
	
		<linearGradient id="SVGID_6_" gradientUnits="userSpaceOnUse" x1="-384.1888" y1="981.0358" x2="-391.8566" y2="997.011" gradientTransform="matrix(0.532 -0.9089 0.9089 0.532 -339.5726 -488.2597)">
		<stop  offset="0" style="stop-color:#0AAD61"/>
		<stop  offset="0.246" style="stop-color:#09A95E"/>
		<stop  offset="0.5122" style="stop-color:#079C54"/>
		<stop  offset="0.7868" style="stop-color:#048644"/>
		<stop  offset="1" style="stop-color:#007034"/>
	</linearGradient>
	<path class="st7" d="M344.3,408.8c0,0-0.5-19,5.1-22c5.6-3,24.4,3.6,24.4,3.6L344.3,408.8z"/>
	<text transform="matrix(1 0 0 1 225.7888 343.5471)" class="st8 st9">00844A</text>
	
		<linearGradient id="SVGID_7_" gradientUnits="userSpaceOnUse" x1="-443.8701" y1="991.6901" x2="-451.5366" y2="1007.6624" gradientTransform="matrix(0.4927 -0.9308 0.9308 0.4927 -378.2135 -498.7537)">
		<stop  offset="0" style="stop-color:#0AAD61"/>
		<stop  offset="0.2269" style="stop-color:#09A960"/>
		<stop  offset="0.4724" style="stop-color:#089C5B"/>
		<stop  offset="0.7265" style="stop-color:#058654"/>
		<stop  offset="0.9853" style="stop-color:#00684B"/>
		<stop  offset="1" style="stop-color:#00664A"/>
	</linearGradient>
	<path class="st10" d="M322.7,427.5c0,0-1.3-19,4.2-22.2c5.5-3.2,24.5,2.6,24.5,2.6L322.7,427.5z"/>
	<g>
		
			<linearGradient id="SVGID_8_" gradientUnits="userSpaceOnUse" x1="-16.3076" y1="223.7701" x2="19.8481" y2="216.9913" gradientTransform="matrix(1.2079 0 0 1.2079 198.6852 228.4496)">
			<stop  offset="0" style="stop-color:#009E59"/>
			<stop  offset="0.3876" style="stop-color:#009A56"/>
			<stop  offset="0.8062" style="stop-color:#008D4F"/>
			<stop  offset="1" style="stop-color:#00844A"/>
		</linearGradient>
		<path class="st11" d="M171.7,456c-15.2,16.5-2.5,53.4-6,55.8c-5.5,3.9-15.4,5.5-20.3,17.7c2.4,1.3,4.5,2.1,7.2,2.7
			c-1.1,1.5-1.1,2.7-1.5,5.1c1.4,0.9,5.1,2,7.1,2.6c-0.8,1.2-1.4,3.3-1.7,5.4c20,9.1,60.9-5.8,68-9.2c6.7-3,6-12.9,0.2-24.6
			c4.2-18,3.8-40.9-6.6-54.3C206.4,442.1,182.6,444.2,171.7,456z"/>
		<path class="st12" d="M160.5,526.5l0.9-1.7l-3.8-1.7c0,0-5,4.3-8.2,8.2c1,0.3,2.1,0.7,3.2,0.9c-1.1,1.5-1.1,2.7-1.5,5.1
			c1.4,0.9,5.1,2,7.1,2.6c-0.3,0.4-0.5,1-0.7,1.6c2.8,1.2,5.8,2.1,8.4,2.2c7.8,0.1,6.8-7.6,6.8-7.6L160.5,526.5z"/>
		<path class="st13" d="M157.7,522.4c0,0-7.4,11.6-7.4,15.5c0,0,12.8,5.3,20.4,3.7c7.7-1.6,4.9-8.9,4.9-8.9l-14-6.6l0.5-1.9
			L157.7,522.4z"/>
		<path class="st12" d="M167.4,535.6l-1.1-1.9l-0.9-4.6c0,0-7.6,5.1-9.6,10.6c4.4,1.3,10.6,2.7,15,1.8c1.6-0.3,2.8-0.9,3.6-1.7
			L167.4,535.6z"/>
		<path class="st13" d="M166.8,527c0,0-9.9,11.4-9.7,17c0,0,17,3.4,24.7,1.7c7.7-1.6,0-5.4,0-5.4l-14-6.6l-0.1-5.5L166.8,527z"/>
	</g>
	
		<linearGradient id="SVGID_9_" gradientUnits="userSpaceOnUse" x1="199.2634" y1="63.9125" x2="185.6993" y2="257.6844" gradientTransform="matrix(1.0531 0 0 1.0531 82.5026 236.0097)">
		<stop  offset="0" style="stop-color:#0AAD61"/>
		<stop  offset="0.304" style="stop-color:#09A95F"/>
		<stop  offset="0.6329" style="stop-color:#069C57"/>
		<stop  offset="0.9724" style="stop-color:#01864B"/>
		<stop  offset="1" style="stop-color:#00844A"/>
	</linearGradient>
	<path class="st14" d="M278.3,303.7c0,0-32.3,96.1,14.7,121.7c27.2,14.8,76.5-51.2,83.6-41.6c7.4,10.1-32.1,127.9-104.5,119.3
		c-154.4-18.3-36.6-188.5-36.6-188.5L278.3,303.7z"/>
	
		<radialGradient id="SVGID_10_" cx="89.7302" cy="109.6675" r="203.7225" gradientTransform="matrix(0.9467 0 0 0.9467 93.3591 241.2317)" gradientUnits="userSpaceOnUse">
		<stop  offset="0" style="stop-color:#E8EB99"/>
		<stop  offset="0.3116" style="stop-color:#E8EA97"/>
		<stop  offset="0.4822" style="stop-color:#E8E78F"/>
		<stop  offset="0.6187" style="stop-color:#E8E281"/>
		<stop  offset="0.7372" style="stop-color:#E8DB6D"/>
		<stop  offset="0.8439" style="stop-color:#E7D254"/>
		<stop  offset="0.9408" style="stop-color:#E7C736"/>
		<stop  offset="1" style="stop-color:#E7BF1F"/>
	</radialGradient>
	<path class="st15" d="M251.8,313c0,0-20.3,28.2-33.5,73.8c-22.3,77.4-4.3,111.6,58.4,123.6c0,0-119.1,39.3-136-60.5
		c-13.2-78.4,76-142.5,106.8-144.7C259.6,304.4,251.8,313,251.8,313z"/>
	<path class="st1" d="M289.2,351c0,0,20.4,12,16.5,37.2c-3.9,24.7-30.8,26.7-30.8,26.7L289.2,351z"/>
	<path class="st16" d="M252.8,330.5c0,0,34.1,11,37.8,22.6c3.7,11.6-5.5,57.9-5.5,57.9s21.5,34,29.5,76.7c0,0-61.2,36.2-114.2,21.5
		l-19.2-31c0,0-5.4,9.4,0.9,29.1c0,0-20.1-1.8-24.4-6.1c-4.3-4.3-61.5-74.5,23.7-165.1l3.1,13.9l-5.5,45.1l76.2-57.9L252.8,330.5z"
		/>
	<path class="st1" d="M249.2,331.7c0,0-48.8,27.4-70.1,63.4l56.1-20.1l1.8-19.5l22-0.6l-1.8-30.5L249.2,331.7z"/>
	<path class="st1" d="M198.6,339.7c0,0-20.7,32.3-19.5,55.5c0,0-9.8-22-11-37.2l11-2.4l0.6-21.3L198.6,339.7z"/>
	
		<linearGradient id="SVGID_11_" gradientUnits="userSpaceOnUse" x1="-12.9314" y1="457.7296" x2="76.3538" y2="437.7256" gradientTransform="matrix(0.9512 -0.4519 0.4519 0.9512 6.8103 -131.512)">
		<stop  offset="0" style="stop-color:#E8EB99"/>
		<stop  offset="1" style="stop-color:#0AAD61"/>
	</linearGradient>
	<path class="st17" d="M152.2,312.8c0,0,24.1,40.8,77,30c19.5-4,43.3-21.2,57.3-43.4c35.5-9.3,62.4-56.6,49.5-74.1
		c-19.1-25.9-158.6,39.2-158.6,39.2L152.2,312.8z"/>
	
		<linearGradient id="SVGID_12_" gradientUnits="userSpaceOnUse" x1="51.5909" y1="466.2004" x2="50.6146" y2="459.8601" gradientTransform="matrix(0.9512 -0.4519 0.4519 0.9512 7.1965 -132.5946)">
		<stop  offset="0" style="stop-color:#FFFFFF"/>
		<stop  offset="1" style="stop-color:#BBBCBE"/>
	</linearGradient>
	<path class="st18" d="M255.3,283.9c0,0,12.4,12.9,16.8,11.4c4.4-1.5-4.6-20.5-4.6-20.5L255.3,283.9z"/>
	
		<linearGradient id="SVGID_13_" gradientUnits="userSpaceOnUse" x1="-13.2033" y1="461.5871" x2="-14.1797" y2="455.2464" gradientTransform="matrix(0.9512 -0.4519 0.4519 0.9512 -20.4334 -121.8045)">
		<stop  offset="0" style="stop-color:#FFFFFF"/>
		<stop  offset="0.1216" style="stop-color:#E9E9EA"/>
		<stop  offset="0.275" style="stop-color:#D4D5D6"/>
		<stop  offset="0.4487" style="stop-color:#C6C7C9"/>
		<stop  offset="0.6581" style="stop-color:#BEBFC0"/>
		<stop  offset="1" style="stop-color:#BBBCBE"/>
	</linearGradient>
	<path class="st19" d="M164,319.6c0,0,12.4,12.9,16.8,11.4c4.4-1.5-4.6-20.5-4.6-20.5L164,319.6z"/>
	<linearGradient id="SVGID_14_" gradientUnits="userSpaceOnUse" x1="184.4668" y1="271.6317" x2="223.0788" y2="356.2224">
		<stop  offset="0" style="stop-color:#0AAD61"/>
		<stop  offset="0.304" style="stop-color:#09A95F"/>
		<stop  offset="0.6329" style="stop-color:#069C57"/>
		<stop  offset="0.9724" style="stop-color:#01864B"/>
		<stop  offset="1" style="stop-color:#00844A"/>
	</linearGradient>
	<path class="st20" d="M348.2,210.3c0-41.8-33.9-75.6-75.6-75.6l15.4,39.5c-3,0-5.9,0.2-8.9,0.7c-5.8-4.2-10.4-6.3-10.4-6.3
		s-46.1-19.1-89.2,12.2c-24.3,17.7-24.5,40.7-58.1,53.8c-28.3,11-51.1,40-53.8,46.2c0,0-43.8-14.1-44.8,33.6c0,0-22.9-15.8-19.8-5.5
		c7.4,24.8,35,61.7,78,37c23.2-13.3,29.5-4.1,60.6-8.9c22.3-3.4,34.4-22.9,59.8-27.3c30.3-5.2,53-16,69.5-31.9
		c12.5,4.1,26.6,3.7,39.4-2.4c7.8-3.7,14.3-9.1,19.3-15.5C341.2,246.6,348.2,229.3,348.2,210.3z"/>
	
		<radialGradient id="SVGID_15_" cx="98.1962" cy="299.3686" r="35.3024" gradientTransform="matrix(0.8551 -0.4063 0.4063 0.8551 25.3111 -89.1729)" gradientUnits="userSpaceOnUse">
		<stop  offset="0" style="stop-color:#53BD94"/>
		<stop  offset="0.2236" style="stop-color:#4FBC91"/>
		<stop  offset="0.4655" style="stop-color:#42B988"/>
		<stop  offset="0.7159" style="stop-color:#2CB479"/>
		<stop  offset="0.9708" style="stop-color:#0EAE64"/>
		<stop  offset="1" style="stop-color:#0AAD61"/>
	</radialGradient>
	<path class="st21" d="M305.3,146.1c9.8,20.5,1,45-19.5,54.8c-20.5,9.7-45,1-54.8-19.5c-9.7-20.5-1-45,19.5-54.8
		C271,116.9,295.5,125.6,305.3,146.1z"/>
	<path class="st12" d="M290.9,149.4c6.6,13.8,0.7,30.3-13.1,36.9c-13.8,6.6-30.3,0.7-36.9-13.1c-6.6-13.8-0.7-30.3,13.1-36.9
		C267.8,129.7,284.3,135.6,290.9,149.4z"/>
	
		<radialGradient id="SVGID_16_" cx="26.571" cy="303.0408" r="58.552" gradientTransform="matrix(0.8986 -0.4269 0.4269 0.8986 91.6878 -106.8271)" gradientUnits="userSpaceOnUse">
		<stop  offset="0.3034" style="stop-color:#FFFFFF"/>
		<stop  offset="0.4313" style="stop-color:#FAFAFA"/>
		<stop  offset="0.5933" style="stop-color:#EAEBEB"/>
		<stop  offset="0.7737" style="stop-color:#D0D2D3"/>
		<stop  offset="0.966" style="stop-color:#ACAFB2"/>
		<stop  offset="1" style="stop-color:#A5A8AB"/>
	</radialGradient>
	<path class="st22" d="M291.8,151.4c6.6,13.8,0.7,30.3-13.1,36.9c-13.8,6.6-30.3,0.7-36.9-13.1c-6.6-13.8-0.7-30.3,13.1-36.9
		C268.7,131.7,285.3,137.6,291.8,151.4z"/>
	
		<radialGradient id="SVGID_17_" cx="38.6967" cy="298.2311" r="12.3509" gradientTransform="matrix(0.8986 -0.4269 0.4269 0.8986 86.0159 -100.7974)" gradientUnits="userSpaceOnUse">
		<stop  offset="0" style="stop-color:#FFFFFF"/>
		<stop  offset="5.818057e-02" style="stop-color:#DAD9D9"/>
		<stop  offset="0.1353" style="stop-color:#AFAEAE"/>
		<stop  offset="0.2184" style="stop-color:#898788"/>
		<stop  offset="0.3066" style="stop-color:#6A6768"/>
		<stop  offset="0.4013" style="stop-color:#504D4D"/>
		<stop  offset="0.5049" style="stop-color:#3C3839"/>
		<stop  offset="0.622" style="stop-color:#2E2A2B"/>
		<stop  offset="0.764" style="stop-color:#252223"/>
		<stop  offset="1" style="stop-color:#231F20"/>
	</radialGradient>
	<path class="st23" d="M263.8,152.4c2.5,5.2,0.2,11.4-4.9,13.9c-5.2,2.5-11.4,0.3-13.9-4.9c-2.5-5.2-0.3-11.4,4.9-13.9
		C255.1,145,261.3,147.2,263.8,152.4z"/>
	<g>
		
			<radialGradient id="SVGID_18_" cx="407.138" cy="178.2879" r="87.3474" gradientTransform="matrix(0.899 0 0 0.899 -133.6294 268.7563)" gradientUnits="userSpaceOnUse">
			<stop  offset="0" style="stop-color:#53BD94"/>
			<stop  offset="0.2236" style="stop-color:#4FBC91"/>
			<stop  offset="0.4655" style="stop-color:#42B988"/>
			<stop  offset="0.7159" style="stop-color:#2CB479"/>
			<stop  offset="0.9708" style="stop-color:#0EAE64"/>
			<stop  offset="1" style="stop-color:#0AAD61"/>
		</radialGradient>
		<path class="st24" d="M293.3,465.4c18.2,19.7,3,63.6,7.1,66.6c6.6,4.7,18.4,6.5,24.2,21.1c-2.8,1.6-5.4,2.5-8.6,3.2
			c1.3,1.8,1.3,3.2,1.8,6.1c-1.6,1.1-6.1,2.4-8.5,3.1c0.9,1.4,1.6,4,2,6.5c-23.9,10.8-72.6-6.9-81.1-10.9c-8-3.6-7.1-15.4-0.3-29.3
			c-5-21.5-7.1-50,6.5-65.6C251.5,448.8,280.3,451.3,293.3,465.4z"/>
		<path class="st12" d="M306.6,549.6l-1.1-2l4.5-2.1c0,0,6,5.2,9.8,9.8c-1.2,0.4-2.5,0.8-3.8,1.1c1.3,1.8,1.3,3.2,1.8,6.1
			c-1.6,1.1-6.1,2.4-8.5,3.1c0.3,0.5,0.6,1.2,0.9,1.9c-3.4,1.5-6.9,2.5-10,2.6c-9.4,0.2-8.1-9.1-8.1-9.1L306.6,549.6z"/>
		<path class="st25" d="M310,544.6c0,0,8.8,13.9,8.8,18.4c0,0-15.2,6.4-24.4,4.4c-9.2-1.9-5.9-10.6-5.9-10.6l16.7-7.8l-0.6-2.2
			L310,544.6z"/>
		<path class="st12" d="M298.4,560.4l1.3-2.3l1-5.4c0,0,9.1,6.1,11.5,12.7c-5.2,1.6-12.6,3.3-17.9,2.2c-1.9-0.4-3.3-1.1-4.3-2
			L298.4,560.4z"/>
		<path class="st25" d="M299.1,550.1c0,0,11.8,13.6,11.6,20.2c0,0-20.3,4-29.5,2.1c-9.2-1.9,0.1-6.5,0.1-6.5l16.7-7.8l0.1-6.5
			L299.1,550.1z"/>
	</g>
	
		<radialGradient id="SVGID_19_" cx="-82.499" cy="297.7183" r="43.7855" gradientTransform="matrix(0.8972 -0.3023 0.3023 0.8972 58.4332 2.7013)" gradientUnits="userSpaceOnUse">
		<stop  offset="0" style="stop-color:#0AAD61"/>
		<stop  offset="0.4395" style="stop-color:#09AB60"/>
		<stop  offset="0.6712" style="stop-color:#08A35B"/>
		<stop  offset="0.8538" style="stop-color:#049554"/>
		<stop  offset="1" style="stop-color:#00844A"/>
	</radialGradient>
	<path class="st26" d="M87.2,272.3c4.4,12.9,0,26.1-9.7,29.3c-9.7,3.3-21.1-4.6-25.5-17.5c-4.4-12.9,0-26.1,9.7-29.3
		C71.4,251.5,82.8,259.4,87.2,272.3z"/>
	
		<radialGradient id="SVGID_20_" cx="-118.935" cy="225.2816" r="24.099" gradientTransform="matrix(0.8972 -0.3023 0.3781 1.1221 66.396 -5.8193)" gradientUnits="userSpaceOnUse">
		<stop  offset="0" style="stop-color:#009E59"/>
		<stop  offset="0.3112" style="stop-color:#009B57"/>
		<stop  offset="0.5648" style="stop-color:#009151"/>
		<stop  offset="0.7974" style="stop-color:#018046"/>
		<stop  offset="1" style="stop-color:#016A38"/>
	</radialGradient>
	<path class="st27" d="M69.3,276.3c1.7,5.1,0.6,10-2.4,11.1c-3,1-6.9-2.3-8.6-7.3c-1.7-5.1-0.6-10,2.4-11.1
		C63.7,267.9,67.5,271.2,69.3,276.3z"/>
	
		<radialGradient id="SVGID_21_" cx="-140.1348" cy="302.2725" r="43.7855" gradientTransform="matrix(0.8972 -0.3023 0.3023 0.8972 58.4332 2.7013)" gradientUnits="userSpaceOnUse">
		<stop  offset="0" style="stop-color:#0AAD61"/>
		<stop  offset="0.4395" style="stop-color:#09AB60"/>
		<stop  offset="0.6712" style="stop-color:#08A35B"/>
		<stop  offset="0.8538" style="stop-color:#049554"/>
		<stop  offset="1" style="stop-color:#00844A"/>
	</radialGradient>
	<path class="st28" d="M36.8,293.8c4.4,12.9,0,26.1-9.7,29.3c-9.7,3.3-21.1-4.6-25.5-17.5c-4.4-12.9,0-26.1,9.7-29.3
		C21.1,273,32.5,280.9,36.8,293.8z"/>
	
		<radialGradient id="SVGID_22_" cx="-176.5708" cy="228.9229" r="24.099" gradientTransform="matrix(0.8972 -0.3023 0.3781 1.1221 66.396 -5.8193)" gradientUnits="userSpaceOnUse">
		<stop  offset="0" style="stop-color:#009E59"/>
		<stop  offset="0.3112" style="stop-color:#009B57"/>
		<stop  offset="0.5648" style="stop-color:#009151"/>
		<stop  offset="0.7974" style="stop-color:#018046"/>
		<stop  offset="1" style="stop-color:#016A38"/>
	</radialGradient>
	<path class="st29" d="M18.9,297.8c1.7,5.1,0.6,10-2.4,11.1c-3,1-6.9-2.3-8.6-7.3c-1.7-5.1-0.6-10,2.4-11.1
		C13.4,289.4,17.2,292.7,18.9,297.8z"/>
	
		<radialGradient id="SVGID_23_" cx="-14.0112" cy="273.3658" r="38.3199" gradientTransform="matrix(0.8551 -0.4063 0.4063 0.8551 28.4545 -86.6049)" gradientUnits="userSpaceOnUse">
		<stop  offset="0" style="stop-color:#53BD94"/>
		<stop  offset="0.2236" style="stop-color:#4FBC91"/>
		<stop  offset="0.4655" style="stop-color:#42B988"/>
		<stop  offset="0.7159" style="stop-color:#2CB479"/>
		<stop  offset="0.9708" style="stop-color:#0EAE64"/>
		<stop  offset="1" style="stop-color:#0AAD61"/>
	</radialGradient>
	<path class="st30" d="M210.2,161.9c9.5,20,1,43.9-19,53.4c-20,9.5-43.9,1-53.4-19c-9.5-20-1-43.9,19-53.4
		C176.8,133.5,200.7,142,210.2,161.9z"/>
	<path class="st12" d="M196.9,165.8c6.2,13.1,0.7,28.8-12.5,35.1c-13.1,6.2-28.8,0.7-35.1-12.5c-6.2-13.1-0.7-28.8,12.5-35.1
		C174.9,147.1,190.6,152.7,196.9,165.8z"/>
	
		<radialGradient id="SVGID_24_" cx="-0.2799" cy="302.1981" r="58.552" gradientTransform="matrix(0.8551 -0.4063 0.4063 0.8551 29.6571 -86.6514)" gradientUnits="userSpaceOnUse">
		<stop  offset="0.3034" style="stop-color:#FFFFFF"/>
		<stop  offset="0.4313" style="stop-color:#FAFAFA"/>
		<stop  offset="0.5933" style="stop-color:#EAEBEB"/>
		<stop  offset="0.7737" style="stop-color:#D0D2D3"/>
		<stop  offset="0.966" style="stop-color:#ACAFB2"/>
		<stop  offset="1" style="stop-color:#A5A8AB"/>
	</radialGradient>
	<path class="st31" d="M197.8,167.8c6.2,13.1,0.7,28.8-12.5,35.1c-13.1,6.2-28.8,0.7-35.1-12.5c-6.2-13.1-0.7-28.8,12.5-35.1
		C175.9,149.1,191.6,154.7,197.8,167.8z"/>
	<path class="st32" d="M233.3,397l11-24.4l8.5,19.5l8.5-10.4l5.5,14.6C266.9,396.4,242.5,399.4,233.3,397z"/>
	
		<radialGradient id="SVGID_25_" cx="-51.9007" cy="274.7846" r="12.3509" gradientTransform="matrix(0.8986 -0.4269 0.4269 0.8986 86.0159 -100.7974)" gradientUnits="userSpaceOnUse">
		<stop  offset="0" style="stop-color:#FFFFFF"/>
		<stop  offset="5.818057e-02" style="stop-color:#DAD9D9"/>
		<stop  offset="0.1353" style="stop-color:#AFAEAE"/>
		<stop  offset="0.2184" style="stop-color:#898788"/>
		<stop  offset="0.3066" style="stop-color:#6A6768"/>
		<stop  offset="0.4013" style="stop-color:#504D4D"/>
		<stop  offset="0.5049" style="stop-color:#3C3839"/>
		<stop  offset="0.622" style="stop-color:#2E2A2B"/>
		<stop  offset="0.764" style="stop-color:#252223"/>
		<stop  offset="1" style="stop-color:#231F20"/>
	</radialGradient>
	<path class="st33" d="M172.4,170c2.5,5.2,0.2,11.4-4.9,13.9c-5.2,2.5-11.4,0.3-13.9-4.9c-2.5-5.2-0.3-11.4,4.9-13.9
		C163.7,162.6,169.9,164.8,172.4,170z"/>
	
		<radialGradient id="SVGID_26_" cx="22.0216" cy="108.7573" r="39.4745" gradientTransform="matrix(0.9467 0 0 0.9467 81.9293 262.3821)" gradientUnits="userSpaceOnUse">
		<stop  offset="0" style="stop-color:#53BD94"/>
		<stop  offset="0.2236" style="stop-color:#4FBC91"/>
		<stop  offset="0.4655" style="stop-color:#42B988"/>
		<stop  offset="0.7159" style="stop-color:#2CB479"/>
		<stop  offset="0.9708" style="stop-color:#0EAE64"/>
		<stop  offset="1" style="stop-color:#0AAD61"/>
	</radialGradient>
	<path class="st34" d="M104,394.8c-8.9-18.2,2.9-35.5,19.5-34.7l-5.2,12.1l16.8-2l-3.6,14.5l18.8-1.4c0,0-2.4,19.5-18.1,23.1
		C117.5,409.8,108.4,403.7,104,394.8z"/>
	<g>
		<path class="st12" d="M263.8,518.1l-0.1,0c-0.9,0.1-1.5,0.9-1.5,1.8c0.1,0.9,0.8,1.6,1.7,1.5c0,0,0,0,0.1,0l0.1,0l4.9-0.4
			c1.6,0,3.3,0,4.9-0.1c3.2,0.2,6.5,0.4,9.7,1.2c3.2,0.7,6.3,1.8,9.2,3.3c0.7,0.4,1.4,0.8,2.1,1.3c0.7,0.5,1.4,0.9,2,1.5
			c1.3,1.1,2.5,2.3,3.5,3.7c-0.8-1.5-2-2.8-3.2-4c-0.6-0.6-1.3-1.1-1.9-1.7c-0.7-0.5-1.4-1-2.1-1.5c-2.9-1.9-6-3.2-9.2-4.2
			c-3.2-1.1-6.6-1.6-9.9-2.1c-1.7-0.1-3.4-0.3-5.1-0.4L263.8,518.1"/>
		<path class="st12" d="M276.5,523c-3.7,0.1-7.3,0.9-10.9,1.7c-2,0.6-4,1.2-5.9,1.9L254,529l-0.1,0c-0.8,0.4-1.1,1.4-0.7,2.2
			c0.3,0.6,0.9,0.9,1.5,0.9c0.2,0,0.4-0.1,0.6-0.2l0.1-0.1l5.4-2.6c1.8-0.8,3.7-1.5,5.6-2.2c3.8-1.1,7.7-2.2,11.7-2.4
			c0.5,0,1.1-0.1,1.6-0.1c3.4-0.1,6.9,0.2,10.2,1.3c3.8,1.2,7.5,3.1,10.3,6.1c-2.6-3.2-6.3-5.4-10.1-6.9c-3.9-1.5-8-2.1-12.2-2
			C277.5,523,277,523,276.5,523"/>
	</g>
	<g>
		<g>
			<path class="st12" d="M133.7,257.6c-0.9-3.2-2.4-6.1-4.2-8.9c-0.5-0.7-0.9-1.4-1.4-2l-1.6-1.9c-0.6-0.6-1.2-1.2-1.8-1.7
				c-0.6-0.5-1.3-1-2-1.5c-0.7-0.4-1.4-0.8-2.2-1.2c-0.8-0.3-1.5-0.7-2.3-1c-1.6-0.5-3.2-0.9-4.8-1l-0.1,0.3
				c2.7,1.8,5.2,3.5,7.5,5.4c2.3,1.9,4.8,3.7,6.7,6.1c1.9,2.3,3.6,5,4.7,7.8c0.7,1.4,1.1,2.9,1.6,4.4c0.3,0.7,0.3,1.5,0.5,2.3
				l0.5,2.3l0.3,0c-0.1-1.6-0.1-3.2-0.4-4.8C134.4,260.8,134.2,259.1,133.7,257.6z M149.1,246.5c-0.2-1.2-0.3-2.4-0.7-3.6
				c-0.6-2.4-1.7-4.6-3-6.7c-0.4-0.5-0.7-1.1-1.1-1.5l-1.2-1.5c-0.4-0.5-0.9-0.9-1.3-1.3c-0.5-0.4-1-0.7-1.5-1.1
				c-0.5-0.3-1.1-0.6-1.7-0.9c-0.6-0.2-1.1-0.5-1.8-0.7c-1.2-0.4-2.4-0.6-3.7-0.5l-0.1,0.3c1.9,1.5,3.7,2.9,5.3,4.3
				c1.6,1.5,3.5,2.6,4.9,4.4c0.4,0.4,0.7,0.9,1,1.3c0.3,0.5,0.7,0.9,0.9,1.4l0.9,1.5c0.3,0.5,0.5,1,0.7,1.5c0.5,1,0.8,2.1,1.2,3.2
				c0.2,0.5,0.3,1.1,0.4,1.7l0.4,1.7l0.3,0C149.3,248.9,149.3,247.7,149.1,246.5z M121.2,279.2c-1.2-4.3-3.4-8.3-5.9-12.1
				c-0.7-0.9-1.3-1.9-2-2.7l-2.2-2.6c-0.8-0.8-1.6-1.6-2.5-2.3c-0.9-0.7-1.8-1.4-2.7-2c-0.9-0.6-1.9-1.2-2.9-1.7c-1-0.5-2-1-3.1-1.4
				c-2.1-0.8-4.3-1.4-6.5-1.6l-0.1,0.3c3.8,2.2,7.4,4.4,10.7,7.1c3.3,2.6,6.6,5.2,9.3,8.6c2.6,3.3,5,7,6.4,11c0.9,2,1.4,4.1,2.1,6.2
				l0.2,0.8l0.2,0.8l0.3,1.6l0.6,3.2l0.3,0c-0.2-2.2-0.3-4.4-0.7-6.6C122.3,283.5,122,281.3,121.2,279.2z"/>
		</g>
	</g>
	<linearGradient id="SVGID_27_" gradientUnits="userSpaceOnUse" x1="266.9592" y1="136.5404" x2="270.4494" y2="203.1359">
		<stop  offset="0" style="stop-color:#D4F4F3"/>
		<stop  offset="1" style="stop-color:#7BDFE0"/>
	</linearGradient>
	<path class="st35" d="M309.3,161.3c0,19.8-21.4,42-41.2,42s-40.7-17.7-40.7-37.6s17.8-22.8,38.5-28.1
		C287,132.2,309.3,141.4,309.3,161.3z"/>
	<linearGradient id="SVGID_28_" gradientUnits="userSpaceOnUse" x1="166.044" y1="152.7775" x2="169.4662" y2="218.0779">
		<stop  offset="0" style="stop-color:#D4F4F3"/>
		<stop  offset="1" style="stop-color:#7BDFE0"/>
	</linearGradient>
	<path class="st36" d="M200.4,177.1c1.9,18.2-16,41-32.3,41s-33.5-16.3-33.5-34.6s9.7-24.4,26.6-29.2
		C178.6,149.3,197.8,153.4,200.4,177.1z"/>
	<path class="st16" d="M212.2,71.2c-46.6,4.6-77.2,15.6-76,27.6l4.5,62.7c0,0,12.1-24.8,75.9-30c72-5.9,84.2,9.1,84.2,9.1l-2-55.9
		C297.6,72.6,258.9,66.6,212.2,71.2z"/>
	<rect x="53.2" y="77.7" class="st0" width="8.2" height="90.8"/>
	<path class="st37" d="M57.4,165.8c-5.5,0-10.1,4.5-10.1,10.1V193v8h0.8v-8h0.5v7.4h0.4V193h0.6v9.3h0.5V193h0.2v9.3h0.3V193h0.3
		v4.5h0.2V193h0.3v5.5h0.1V193h1.4v9.3H53V193h1v4.9h1.1V193h0.6v5.8h0.9V193h0.7v9.3H58V193h0.7v8.5h1.3V193h1.2v7.4h0.8V193H63
		v6.2h0.4V193h1.3v9.3h1.5V193h0.9v9.3h0.3V193v-2.4v-14.7C67.4,170.3,62.9,165.8,57.4,165.8z"/>
	<g>
		<path d="M222.9,156.8c0,0-12.6-1.4-21.8,3.1l-2.2,4.6l2.8,6.7c0,0,2.8-0.6,3.3-2.5c0.5-1.9,2.6-5.8,6.6-6.4c4-0.6,7.9-0.1,9.1,2.1
			c1.2,2.2,2.1,3.2,4.5,3.1L222.9,156.8z"/>
		<g>
			<path d="M273.8,206.2c0,0,37.9-2.7,37.7-52.8l4.4-5c0,0,1.1-7.7-1.1-11.4c0,0-25.1-7.2-52.1-1c-27,6.2-39.8,20.9-39.8,20.9
				S223.6,207.5,273.8,206.2z M229.8,166.6c-0.4-1.6-0.9-21.6,34.8-26.9c35.7-5.3,38.9,11,38.9,11c4.3,12,1.4,47.4-31.9,51.2
				C238.2,205.7,230.2,168.2,229.8,166.6z"/>
			
				<linearGradient id="SVGID_29_" gradientUnits="userSpaceOnUse" x1="-1530.1512" y1="308.2313" x2="-1532.1514" y2="304.2309" gradientTransform="matrix(-0.9775 0.211 0.211 0.9775 -1286.651 156.0998)">
				<stop  offset="0" style="stop-color:#000000"/>
				<stop  offset="1" style="stop-color:#4D4D4D"/>
			</linearGradient>
			<path class="st38" d="M276.6,203.8c-1.6,0.3-2.7,0.5-2.9,0.5c-2.7,0.1-5.3,0-7.7-0.3c1.9,0,3.8,0,5.7-0.3
				c1.6-0.2,3.1-0.4,4.6-0.8c10.9-2.3,19.4-8.6,24.7-18.1c6.6-11.8,7.1-26.7,4.2-34.8c-0.5-1.9-5.4-17.7-41-12.4
				c-1.2,0.2-2.4,0.4-3.5,0.6c0.8-0.2,1.6-0.4,2.4-0.6c0.4-0.1,0.7-0.2,1.1-0.2c23.1-5,44.9-0.1,49.3,1c1,2.5,0.8,6.8,0.6,9l-4,4.6
				c-0.3,0.3-0.5,0.8-0.5,1.2c0.1,17.2-4.4,30.4-13.2,39.5C289.3,200.2,280.9,202.9,276.6,203.8L276.6,203.8z M250.3,199.9
				c-3.9-1.8-7.4-4.2-10.5-7.2c-13-12.4-14.7-31.3-14.9-35.2c1.4-1.4,5.6-5.4,12.6-9.6c-9.3,7.4-10.1,16.1-9.5,19
				c0.4,1.8,2.7,11.4,8.8,20.4C240.6,192.9,245.1,197.1,250.3,199.9L250.3,199.9z"/>
		</g>
		<g>
			<path d="M174.9,218.8c0,0-30.1,8.2-43.3-37.5l-4.7-3.4c0,0-2.9-6.8-2.2-10.7c0,0,17.5-13.7,40-15.6c22.5-2,36.4,7.8,36.4,7.8
				S214.1,205.9,174.9,218.8z M198.4,170.3c-0.2-1.6-5.1-20-34.1-14.8c-29,5.2-27.1,21-27.1,21c-0.1,12.2,11.6,43.7,38.3,37.7
				C202.3,208.3,198.5,171.9,198.4,170.3z"/>
			
				<linearGradient id="SVGID_30_" gradientUnits="userSpaceOnUse" x1="-1051.3126" y1="280.7263" x2="-1053.3126" y2="276.7261" gradientTransform="matrix(0.8123 -8.326869e-02 9.752243e-02 0.9513 982.2067 -201.0568)">
				<stop  offset="0" style="stop-color:#000000"/>
				<stop  offset="1" style="stop-color:#4D4D4D"/>
			</linearGradient>
			<path class="st39" d="M172.1,217.5c1.3-0.1,2.2-0.3,2.4-0.4c2.1-0.7,4.1-1.5,5.9-2.4c-1.4,0.6-2.9,1-4.5,1.4
				c-1.3,0.3-2.5,0.5-3.8,0.6c-9,0.9-17.3-2.4-23.9-9.6c-8.2-8.9-12.6-22.3-12.5-30.5c-0.2-1.9-0.5-17.7,28.4-22.9
				c1-0.2,1.9-0.3,2.9-0.5c-0.7,0-1.3,0.1-2,0.1c-0.3,0-0.6,0.1-0.9,0.1c-19.2,2-34.8,12.6-37.8,14.9c-0.1,2.6,1.2,6.5,1.9,8.3
				l4.3,3.1c0.3,0.2,0.6,0.6,0.7,1c4.5,15.7,11.5,26.5,20.8,32.3C161.4,217.8,168.5,217.9,172.1,217.5L172.1,217.5z M191.4,206.5
				c2.5-2.8,4.6-5.9,6.2-9.5c6.7-15,3-32.7,2.2-36.4c-1.4-0.9-5.7-3.3-12.3-5.2c9.1,4.1,12.1,11.9,12.4,14.7
				c0.2,1.8,1,11.2-1.4,21.1C197.1,197.4,194.7,202.5,191.4,206.5L191.4,206.5z"/>
		</g>
	</g>
</g>
</svg>
