<svg width="21" height="21" viewBox="0 0 21 21" fill="none" xmlns="http://www.w3.org/2000/svg">
<circle cx="10.5" cy="10.5" r="10.5" fill="white"/>
<path d="M16.9178 12.6563C16.8763 12.6095 16.8223 12.5749 16.7617 12.5566C16.7011 12.5383 16.6365 12.537 16.5752 12.5529C15.6759 12.7829 14.7347 12.8086 13.8236 12.628C12.9126 12.4474 12.056 12.0654 11.3197 11.5112C10.5834 10.957 9.98692 10.2455 9.57604 9.43112C9.16516 8.61677 8.95082 7.72131 8.94947 6.81347C8.94669 6.00027 9.11706 5.19539 9.44974 4.44991C9.47223 4.39352 9.47841 4.33218 9.46762 4.27259C9.45682 4.213 9.42946 4.15746 9.38852 4.11203C9.34759 4.0666 9.29465 4.03303 9.2355 4.015C9.17635 3.99696 9.11326 3.99516 9.05313 4.00977C7.94299 4.29274 6.92487 4.84696 6.09461 5.62026C5.26435 6.39356 4.64927 7.36049 4.30729 8.43002C3.96532 9.49954 3.90769 10.6365 4.13984 11.7337C4.37198 12.831 4.88627 13.8525 5.63426 14.7021C6.38226 15.5517 7.33936 16.2014 8.41545 16.5901C9.49154 16.9787 10.6512 17.0936 11.7853 16.9237C12.9193 16.7538 13.9905 16.3049 14.8978 15.6192C15.8052 14.9335 16.5189 14.0335 16.9718 13.0041C16.9973 12.947 17.0057 12.8841 16.9962 12.8226C16.9866 12.7611 16.9594 12.7034 16.9178 12.6563Z" fill="#1B1B1B"/>
</svg>
