<svg xmlns="http://www.w3.org/2000/svg" version="1.1" xmlns:xlink="http://www.w3.org/1999/xlink" xmlns:svgjs="http://svgjs.com/svgjs" x="0" y="0" viewBox="0 0 512 512" xml:space="preserve" class=""><g><path d="m504.954 153.285-241-151a14.985 14.985 0 0 0-15.908 0l-241 151A15 15 0 0 0 0 166a15 15 0 0 0 7.046 12.715l241 150a14.993 14.993 0 0 0 15.908 0l241-150A15 15 0 0 0 512 166a15 15 0 0 0-7.046-12.715z" fill="#ffffff" data-original="#ffffff" class=""/><path d="m504.954 333.285-23.355-14.597-217.645 135.403a14.993 14.993 0 0 1-15.908 0L30.401 318.688 7.046 333.285A15 15 0 0 0 0 346a15 15 0 0 0 7.046 12.715l241 151a14.993 14.993 0 0 0 15.908 0l241-151A15 15 0 0 0 512 346a15 15 0 0 0-7.046-12.715z" fill="#ffffff" data-original="#ffffff" class=""/><path d="m504.954 243.285-23.355-14.597-217.645 135.403a14.993 14.993 0 0 1-15.908 0L30.401 228.688 7.046 243.285A15 15 0 0 0 0 256a15 15 0 0 0 7.046 12.715l241 150a14.993 14.993 0 0 0 15.908 0l241-150A15 15 0 0 0 512 256a15 15 0 0 0-7.046-12.715z" fill="#ffffff" data-original="#ffffff"/></g></svg>