<svg width="21" height="21" viewBox="0 0 21 21" fill="none" xmlns="http://www.w3.org/2000/svg">
<circle cx="10.5" cy="10.5" r="10.5" fill="#222222"/>
<path d="M9.87097 5.46774V4.62903C9.87097 4.4622 9.93724 4.30221 10.0552 4.18424C10.1732 4.06627 10.3332 4 10.5 4C10.6668 4 10.8268 4.06627 10.9448 4.18424C11.0628 4.30221 11.129 4.4622 11.129 4.62903V5.46774C11.129 5.63457 11.0628 5.79457 10.9448 5.91253C10.8268 6.0305 10.6668 6.09677 10.5 6.09677C10.3332 6.09677 10.1732 6.0305 10.0552 5.91253C9.93724 5.79457 9.87097 5.63457 9.87097 5.46774ZM14.0645 10.5C14.0645 11.205 13.8555 11.8942 13.4638 12.4803C13.0721 13.0665 12.5154 13.5234 11.8641 13.7932C11.2128 14.063 10.496 14.1336 9.8046 13.996C9.11315 13.8585 8.47801 13.519 7.97951 13.0205C7.481 12.522 7.14151 11.8869 7.00398 11.1954C6.86644 10.504 6.93703 9.78725 7.20682 9.13592C7.47661 8.48459 7.93348 7.92789 8.51966 7.53621C9.10584 7.14454 9.79501 6.93548 10.5 6.93548C11.4451 6.93646 12.3512 7.31231 13.0194 7.98058C13.6877 8.64885 14.0635 9.55493 14.0645 10.5ZM12.8065 10.5C12.8065 10.0438 12.6712 9.5979 12.4177 9.2186C12.1643 8.83931 11.8041 8.54369 11.3826 8.36912C10.9612 8.19455 10.4974 8.14887 10.05 8.23787C9.60263 8.32686 9.19166 8.54653 8.86909 8.86909C8.54653 9.19166 8.32686 9.60263 8.23787 10.05C8.14887 10.4974 8.19455 10.9612 8.36912 11.3826C8.54369 11.8041 8.83931 12.1643 9.2186 12.4177C9.5979 12.6712 10.0438 12.8065 10.5 12.8065C11.1115 12.8058 11.6977 12.5625 12.1301 12.1301C12.5625 11.6977 12.8058 11.1115 12.8065 10.5ZM6.49044 7.38052C6.54896 7.43904 6.61842 7.48545 6.69487 7.51712C6.77132 7.54878 6.85326 7.56508 6.93601 7.56508C7.01876 7.56508 7.1007 7.54878 7.17715 7.51712C7.2536 7.48545 7.32306 7.43904 7.38157 7.38052C7.44008 7.32201 7.4865 7.25255 7.51817 7.1761C7.54983 7.09965 7.56613 7.01771 7.56613 6.93496C7.56613 6.85221 7.54983 6.77027 7.51817 6.69382C7.4865 6.61737 7.44008 6.54791 7.38157 6.4894L6.75254 5.86036C6.63437 5.74219 6.47409 5.6758 6.30698 5.6758C6.13986 5.6758 5.97958 5.74219 5.86141 5.86036C5.74324 5.97853 5.67685 6.13881 5.67685 6.30593C5.67685 6.47305 5.74324 6.63332 5.86141 6.75149L6.49044 7.38052ZM6.49044 13.6184L5.86141 14.2475C5.8029 14.306 5.75648 14.3754 5.72482 14.4519C5.69315 14.5283 5.67685 14.6103 5.67685 14.693C5.67685 14.7758 5.69315 14.8577 5.72482 14.9342C5.75648 15.0106 5.8029 15.0801 5.86141 15.1386C5.97958 15.2568 6.13986 15.3231 6.30698 15.3231C6.38972 15.3231 6.47166 15.3068 6.54811 15.2752C6.62456 15.2435 6.69403 15.1971 6.75254 15.1386L7.38157 14.5096C7.49974 14.3914 7.56613 14.2311 7.56613 14.064C7.56613 13.8969 7.49974 13.7366 7.38157 13.6184C7.2634 13.5003 7.10313 13.4339 6.93601 13.4339C6.76889 13.4339 6.60861 13.5003 6.49044 13.6184ZM14.0645 7.56452C14.1471 7.56458 14.229 7.54837 14.3053 7.5168C14.3817 7.48523 14.4511 7.43892 14.5096 7.38052L15.1386 6.75149C15.1971 6.69298 15.2435 6.62352 15.2752 6.54707C15.3068 6.47062 15.3231 6.38868 15.3231 6.30593C15.3231 6.22318 15.3068 6.14124 15.2752 6.06479C15.2435 5.98834 15.1971 5.91888 15.1386 5.86036C15.0801 5.80185 15.0106 5.75544 14.9342 5.72377C14.8577 5.6921 14.7758 5.6758 14.693 5.6758C14.6103 5.6758 14.5283 5.6921 14.4519 5.72377C14.3754 5.75544 14.306 5.80185 14.2475 5.86036L13.6184 6.4894C13.5299 6.57738 13.4696 6.68969 13.4451 6.81205C13.4206 6.93442 13.4331 7.0613 13.4809 7.17656C13.5287 7.29182 13.6098 7.39025 13.7137 7.45934C13.8176 7.52842 13.9397 7.56503 14.0645 7.56452ZM14.5096 13.6195C14.3914 13.5013 14.2311 13.4349 14.064 13.4349C13.8969 13.4349 13.7366 13.5013 13.6184 13.6195C13.5003 13.7376 13.4339 13.8979 13.4339 14.065C13.4339 14.2322 13.5003 14.3924 13.6184 14.5106L14.2475 15.1396C14.3656 15.2578 14.5259 15.3242 14.693 15.3242C14.8601 15.3242 15.0204 15.2578 15.1386 15.1396C15.2568 15.0215 15.3231 14.8612 15.3231 14.6941C15.3231 14.527 15.2568 14.3667 15.1386 14.2485L14.5096 13.6195ZM6.09677 10.5C6.09677 10.3332 6.0305 10.1732 5.91253 10.0552C5.79457 9.93724 5.63457 9.87097 5.46774 9.87097H4.62903C4.4622 9.87097 4.30221 9.93724 4.18424 10.0552C4.06627 10.1732 4 10.3332 4 10.5C4 10.6668 4.06627 10.8268 4.18424 10.9448C4.30221 11.0628 4.4622 11.129 4.62903 11.129H5.46774C5.63457 11.129 5.79457 11.0628 5.91253 10.9448C6.0305 10.8268 6.09677 10.6668 6.09677 10.5ZM10.5 14.9032C10.3332 14.9032 10.1732 14.9695 10.0552 15.0875C9.93724 15.2054 9.87097 15.3654 9.87097 15.5323V16.371C9.87097 16.5378 9.93724 16.6978 10.0552 16.8158C10.1732 16.9337 10.3332 17 10.5 17C10.6668 17 10.8268 16.9337 10.9448 16.8158C11.0628 16.6978 11.129 16.5378 11.129 16.371V15.5323C11.129 15.3654 11.0628 15.2054 10.9448 15.0875C10.8268 14.9695 10.6668 14.9032 10.5 14.9032ZM16.371 9.87097H15.5323C15.3654 9.87097 15.2054 9.93724 15.0875 10.0552C14.9695 10.1732 14.9032 10.3332 14.9032 10.5C14.9032 10.6668 14.9695 10.8268 15.0875 10.9448C15.2054 11.0628 15.3654 11.129 15.5323 11.129H16.371C16.5378 11.129 16.6978 11.0628 16.8158 10.9448C16.9337 10.8268 17 10.6668 17 10.5C17 10.3332 16.9337 10.1732 16.8158 10.0552C16.6978 9.93724 16.5378 9.87097 16.371 9.87097Z" fill="white"/>
</svg>
