<svg width="19" height="16" viewBox="0 0 19 16" fill="none" xmlns="http://www.w3.org/2000/svg">
<path fill-rule="evenodd" clip-rule="evenodd" d="M12.97 0.908909C12.97 0.406932 13.3769 0 13.8789 0H17.9519C18.4539 0 18.8608 0.406932 18.8608 0.908909C18.8608 1.41089 18.4539 1.81782 17.9519 1.81782H16.9214V14.1822H18.0489C18.5509 14.1822 18.9579 14.5891 18.9579 15.0911C18.9579 15.5931 18.5509 16 18.0489 16H13.8789C13.3769 16 12.97 15.5931 12.97 15.0911C12.97 14.5891 13.3769 14.1822 13.8789 14.1822H15.1036V1.81782H13.8789C13.3769 1.81782 12.97 1.41089 12.97 0.908909Z" fill="white"/>
<path d="M0.431366 11.7598L3.24854 4.10057C3.50096 3.42565 3.70921 2.92683 3.87358 2.60394C4.03795 2.27534 4.26393 1.99949 4.55151 1.77637C4.83908 1.54754 5.21471 1.43305 5.67838 1.43305C6.15377 1.43305 6.53825 1.54754 6.83169 1.77637C7.13099 2.00535 7.36568 2.29292 7.53591 2.63925C7.712 2.97956 7.91739 3.46667 8.15223 4.10057L10.9605 11.7598C11.1366 12.2234 11.2511 12.581 11.3039 12.8334C11.3626 13.0798 11.3919 13.3292 11.3919 13.5816C11.3919 13.9467 11.2628 14.2397 11.0046 14.4621C10.7521 14.6799 10.4147 14.7881 9.99219 14.7881C9.69875 14.7881 9.45219 14.7295 9.25266 14.6123C9.05313 14.4951 8.89176 14.3299 8.76841 14.1195C8.65106 13.9077 8.54544 13.6492 8.45153 13.3442L8.09935 12.1918H3.30143L2.94038 13.3442C2.78788 13.8205 2.60292 14.1811 2.38581 14.4275C2.17456 14.6679 1.84882 14.7881 1.40859 14.7881C0.991796 14.7881 0.651481 14.6799 0.387343 14.4621C0.129064 14.2397 0 13.9467 0 13.5816C0 13.3653 0.0234388 13.1384 0.0704669 12.904C0.123204 12.6636 0.243554 12.282 0.431366 11.7598ZM7.22775 9.45321L5.76642 4.70803H5.73111L4.16416 9.45321H7.22775Z" fill="white"/>
</svg>
