<svg id="Layer_1" data-name="Layer 1" xmlns="http://www.w3.org/2000/svg" viewBox="0 0 34.67 31.37"><defs><style>.cls-1{fill:#fff;stroke:#b2b2b2;stroke-miterlimit:10;stroke-width:0.5px;}</style></defs><title>thinking_bubble</title><path class="cls-1" d="M33.78,9.63a6.27,6.27,0,0,0-7.89-3.1A6.27,6.27,0,0,0,13.4,5.71a4.55,4.55,0,0,0-5-.7A4.51,4.51,0,0,0,5.83,9a4.53,4.53,0,0,0-3,.32A4.52,4.52,0,0,0,2.07,17a4.55,4.55,0,0,0,5.26,7.26A2.74,2.74,0,0,0,7.69,24a4.49,4.49,0,0,0,.41,1.46,4.56,4.56,0,0,0,8.64-2.33A7.79,7.79,0,0,0,26.8,18.51a6.27,6.27,0,0,0,7-8.88Z"/><path class="cls-1" d="M18,26.34a2.52,2.52,0,1,0,3.37,1.16A2.52,2.52,0,0,0,18,26.34Z"/><path class="cls-1" d="M23.37,28.48a1.38,1.38,0,0,0-.64,1.84,1.39,1.39,0,0,0,1.85.64,1.38,1.38,0,0,0-1.21-2.48Z"/></svg>