<svg xmlns="http://www.w3.org/2000/svg" version="1.1" xmlns:xlink="http://www.w3.org/1999/xlink" xmlns:svgjs="http://svgjs.com/svgjs" x="0" y="0" viewBox="0 0 467.4 467.4" style="enable-background:new 0 0 512 512" xml:space="preserve"><g><g xmlns="http://www.w3.org/2000/svg"><polygon points="236.182,15 236.182,85 306.183,85  " fill="currentColor" data-original="#000000"/><path d="M197.289,347.5H71.182v-30h120.641c-0.03-1.009-0.07-2.016-0.07-3.033c0-13.036,2.472-25.506,6.968-36.967H71.182v-30   h145.855c18.622-21.177,45.899-34.566,76.248-34.566c9.671,0,19.03,1.361,27.897,3.898V115h-115V0h-185v415h257.885   C240.927,409.631,209.537,382.988,197.289,347.5z M71.182,177.5h200v30h-200V177.5z" fill="currentColor" data-original="#000000"/><path d="M374.87,374.838c-5.988,8.071-13.142,15.225-21.213,21.213l71.349,71.349l21.213-21.213L374.87,374.838z" fill="currentColor" data-original="#000000"/><path d="M293.286,242.934c-39.443,0-71.533,32.089-71.533,71.533S253.843,386,293.286,386s71.533-32.09,71.533-71.533   S332.729,242.934,293.286,242.934z" fill="currentColor" data-original="#000000"/></g><g xmlns="http://www.w3.org/2000/svg"></g><g xmlns="http://www.w3.org/2000/svg"></g><g xmlns="http://www.w3.org/2000/svg"></g><g xmlns="http://www.w3.org/2000/svg"></g><g xmlns="http://www.w3.org/2000/svg"></g><g xmlns="http://www.w3.org/2000/svg"></g><g xmlns="http://www.w3.org/2000/svg"></g><g xmlns="http://www.w3.org/2000/svg"></g><g xmlns="http://www.w3.org/2000/svg"></g><g xmlns="http://www.w3.org/2000/svg"></g><g xmlns="http://www.w3.org/2000/svg"></g><g xmlns="http://www.w3.org/2000/svg"></g><g xmlns="http://www.w3.org/2000/svg"></g><g xmlns="http://www.w3.org/2000/svg"></g><g xmlns="http://www.w3.org/2000/svg"></g></g></svg>