<?xml version="1.0" encoding="utf-8"?>
<!-- Generator: Adobe Illustrator 26.3.1, SVG Export Plug-In . SVG Version: 6.00 Build 0)  -->
<svg version="1.1" id="Layer_1" xmlns="http://www.w3.org/2000/svg" xmlns:xlink="http://www.w3.org/1999/xlink" x="0px" y="0px"
	 viewBox="0 0 6000 3000" style="enable-background:new 0 0 6000 3000;" xml:space="preserve">
<style type="text/css">
	.st0{fill:#E6F3F2;}
	.st1{fill-rule:evenodd;clip-rule:evenodd;fill:#A1D1B0;}
	.st2{fill-rule:evenodd;clip-rule:evenodd;fill:#80C397;}
	.st3{fill:#CCA9D0;}
	.st4{fill:#EF85AD;}
	.st5{fill:#FFFFFF;}
	.st6{fill:#DFCCE5;}
	.st7{fill:#595A5C;}
	.st8{fill:#F6AC88;}
	.st9{fill:#7792CA;}
	.st10{fill:#92AAD8;}
	.st11{fill:#E9D5B1;}
	.st12{fill:#D8C4A3;}
	.st13{fill:#FAEF83;}
	.st14{fill:#B8CCEA;}
	.st15{fill:#A87D4F;}
	.st16{fill:#85554C;}
	.st17{fill:#D3C394;}
	.st18{fill:#8A5E3C;}
	.st19{fill:#A1D1B0;}
</style>
<g id="bg">
	<path class="st0" d="M4422.92,2127.03c-55,0-100-45-100-100v-513.01c0-55,45-100,100-100h336.82c55,0,100-45,100-100V789.24
		c0-55-45-100-100-100h-529.95c-55,0-100-45-100-100V100.21c0-55-45-100-100-100H2848.3c-55,0-100,45-100,100v489.03
		c0,55-45,100-100,100h-574.28c-55,0-100,45-100,100v524.78c0,55-45,100-100,100h-463.17c-55,0-100,45-100,100v513.01
		c0,55-45,100-100,100H710.89c-55,0-100,45-100,100v524.78c0,55,45,100,100,100h4227.55c55,0,100-45,100-100v-524.78
		c0-55-45-100-100-100H4422.92z"/>
</g>
<g id="full_00000110462283730943767980000010141785722056137360_">
	<path id="XMLID_00000067206355634183030550000005972470529539968652_" class="st1" d="M5477.79,1672.58
		c135.25-370.67-276.03-402.6-587.75-222.32c-311.72,180.27-1327.17,1023.69-1762.93,1121.09
		c-168.93,37.77-145.84,67.04-22.22,77.59C3721.4,2701.6,5291.57,2182.83,5477.79,1672.58z"/>
	<path id="XMLID_00000151542233748117875140000018125962906309648555_" class="st2" d="M3011.25,2611.44
		c-12.84,11.95-0.09,21.84,32.14,28.99c1058.48-97.05,2291.35-1107.14,2295.3-1110.35c6.79-5.54,7.82-15.54,2.31-22.35
		c-5.53-6.8-15.53-7.85-22.35-2.3C5314.68,1508.64,4064.98,2532.51,3011.25,2611.44z"/>
	<path id="XMLID_00000177450300654944778230000004918810325759654275_" class="st2" d="M4640.51,1160.11
		c-42.33-326.98-359.69-192.39-521.5,61.29c-161.85,253.68-590.41,1270.08-876.18,1510.06c-110.74,93.04-82.36,105.86,13.4,66.09
		C3733.79,2599.33,4698.77,1610.23,4640.51,1160.11z"/>
	<path id="XMLID_00000100374445574434117390000014906988082498958756_" class="st1" d="M3172.34,2805.79
		c-4.93,13.79,8.34,16.23,35.01,9.09c747.76-479.36,1273.46-1703.02,1275.13-1706.96c2.94-6.72-0.15-14.57-6.87-17.47
		c-6.72-2.92-14.54,0.17-17.47,6.89C4456.42,1101.29,3923.57,2341.68,3172.34,2805.79z"/>
	<path id="XMLID_00000129171466200182423650000003218158125656677774_" class="st2" d="M4926.02,2457.44
		c247.64,183.39-6.69,381.15-287.41,397.78c-280.71,16.62-1305.41-96.23-1631.36,27.76c-126.33,48.06-123.86,19.04-47.85-41.02
		C3338.56,2542.39,4585.13,2205.01,4926.02,2457.44z"/>
	<path id="XMLID_00000091736842998481916740000013791763253720673963_" class="st1" d="M2914.49,2906.71
		c-13.5-2.28-9.43-14.2,8.5-32.73c731.63-392.12,1969.72-264.19,1973.7-263.84c6.81,0.71,11.79,6.78,11.1,13.6
		c-0.67,6.8-6.73,11.78-13.57,11.12C4890.25,2634.47,3635.26,2504.81,2914.49,2906.71z"/>
</g>
<g id="ghadi">
	<g id="XMLID_114_">
		<g id="XMLID_115_">
			<path id="XMLID_87_" class="st3" d="M3562.62,703.08h-481.07c-4.77,0-8.64-3.87-8.64-8.64v-167.3c0-7.97,6.46-14.44,14.44-14.44
				h469.47c7.97,0,14.44,6.46,14.44,14.44v167.3C3571.26,699.21,3567.39,703.08,3562.62,703.08z"/>
			<g id="XMLID_116_">
				<path id="XMLID_86_" class="st3" d="M2788.2,782.79l-197.81,134.17l-83.11-122.52c-2.5-3.68-1.54-8.7,2.15-11.2l184.46-125.12
					c3.68-2.5,8.7-1.54,11.2,2.15L2788.2,782.79z"/>
				<path id="XMLID_82_" class="st3" d="M3855.96,782.79l197.81,134.17l83.11-122.52c2.5-3.68,1.54-8.7-2.15-11.2l-184.46-125.12
					c-3.68-2.5-8.7-1.54-11.2,2.15L3855.96,782.79z"/>
			</g>
		</g>
		<g id="XMLID_120_">
			<circle id="XMLID_108_" class="st4" cx="3322.08" cy="1799.3" r="1158.82"/>
			<circle id="XMLID_107_" class="st5" cx="3322.08" cy="1799.3" r="1050.74"/>
			<g id="XMLID_129_">
				<g>
					<g id="XMLID_00000183209326771460831450000007876460038918049665_">
						
							<rect id="XMLID_00000109748013849016959630000007393090384187192249_" x="3299.56" y="784.59" class="st3" width="45.03" height="222.16"/>
					</g>
					<g id="XMLID_00000034770159929479284700000005286919859052208528_">
						
							<rect id="XMLID_00000105412504621074877810000009531681486997921935_" x="3299.56" y="2591.86" class="st3" width="45.03" height="222.16"/>
					</g>
					<g id="XMLID_00000073681155326529964870000016199206946909943730_">
						
							<rect id="XMLID_00000119798510793019030380000015253525151793387919_" x="4114.64" y="1776.78" class="st3" width="222.15" height="45.04"/>
					</g>
					<g id="XMLID_00000167381407710613213540000017585068341098719360_">
						
							<rect id="XMLID_00000006666312277339452060000003050782501964685726_" x="2307.36" y="1776.78" class="st3" width="222.16" height="45.04"/>
					</g>
					<g id="XMLID_00000165934679810563240780000010382085410025029772_">
						
							<rect id="XMLID_00000123403408833798356850000005961264140858797735_" x="4004.47" y="1353.4" transform="matrix(0.878 -0.4786 0.4786 0.878 -152.2232 2136.5173)" class="st6" width="222.15" height="27.02"/>
					</g>
					<g id="XMLID_00000108993386520873676810000009469355485583579060_">
						
							<rect id="XMLID_00000121279641050955610990000013036551072890260131_" x="2417.53" y="2218.19" transform="matrix(0.8782 -0.4783 0.4783 0.8782 -759.4597 1481.4084)" class="st6" width="222.16" height="27.02"/>
					</g>
					<g id="XMLID_00000166650360237340367570000009247287976317042846_">
						
							<rect id="XMLID_00000129925182867716450250000003756304339257603504_" x="3740.96" y="2481.69" transform="matrix(0.8781 -0.4785 0.4785 0.8781 -782.9336 2112.7061)" class="st6" width="27.03" height="222.16"/>
					</g>
					<g id="XMLID_00000025404608575140991430000004742066996649165700_">
						
							<rect id="XMLID_00000042016935623116215400000013326779189168157594_" x="2876.18" y="894.75" transform="matrix(0.8781 -0.4785 0.4785 0.8781 -128.9947 1505.3876)" class="st6" width="27.02" height="222.16"/>
					</g>
					<g id="XMLID_00000177463460219125329440000012687105207078161297_">
						
							<rect id="XMLID_00000146482344450366413430000014431727765725254055_" x="3672.43" y="1008.85" transform="matrix(0.5107 -0.8598 0.8598 0.5107 972.3981 3753.2546)" class="st6" width="222.16" height="27.02"/>
					</g>
					<g id="XMLID_00000032645600586970691900000016036824540275620736_">
						
							<rect id="XMLID_00000171689939217419938680000000130460087909181605_" x="2749.58" y="2562.74" transform="matrix(0.5105 -0.8599 0.8599 0.5105 -814.9728 3720.8691)" class="st6" width="222.15" height="27.02"/>
					</g>
					<g id="XMLID_00000167360177220428780780000003864999121349390991_">
						
							<rect id="XMLID_00000099642154394898963790000005539646150934398106_" x="4085.52" y="2149.65" transform="matrix(0.5107 -0.8598 0.8598 0.5107 62.1056 4630.5796)" class="st6" width="27.02" height="222.16"/>
					</g>
					<g id="XMLID_00000042737838176580446400000002409458395369979576_">
						
							<rect id="XMLID_00000181802700663517430840000005752934358182979213_" x="2531.62" y="1226.8" transform="matrix(0.5106 -0.8598 0.8598 0.5106 95.2089 2843.0251)" class="st6" width="27.02" height="222.16"/>
					</g>
				</g>
			</g>
		</g>
	</g>
</g>
<g id="ghadi_ka_danda_00000153669943903478397260000015530774421696137368_">
	<circle id="XMLID_00000074404022396186886390000009835329644265301435_" class="st3" cx="3322.08" cy="1799.3" r="105.41"/>
	<polygon id="XMLID_00000108996278268819598120000009769772380016509092_" class="st3" points="3677.01,1412.03 3357.62,1850.9 
		3269.2,1771.72 3670.31,1406.02 	"/>
</g>
<g id="XMLID_65_">
	<g id="XMLID_62_">
		<path id="XMLID_58_" class="st7" d="M2060.28,2724.65c0,0-2.75,21.53-18.86,37.64c-16.11,16.11-79.33,35.67-78.09,64.32
			c1.24,28.65,1.24,28.65,1.24,28.65s116.84-16.11,168.74-35.95c24.63-8.68,24.63-8.68,24.63-8.68l-24.63-104.77L2060.28,2724.65z"
			/>
		<polygon id="XMLID_57_" class="st7" points="1437.35,2121.77 1240.67,2862.22 1265.47,2862.22 1503.47,2121.77 		"/>
		<path id="XMLID_56_" class="st8" d="M2063.73,1426.01c0,0,16.11,148.75,32.23,192.14c16.11,43.39,65.7,34.71,121.48,22.31v59.5
			c0,0,13.64-19.83,37.19-29.75c23.55-9.92,33.47-4.96,33.47-4.96v-63.22c0,0,9.92-9.92,9.92-50.82c0-40.91-28.51-66.94-57.02-52.06
			c-28.51,14.88-11.16,52.06-6.2,71.9c4.96,19.83,0,33.47,0,33.47s-6.2-30.99-14.88-41.53c-8.68-10.54-17.35-21.69-17.35-21.69
			S2110.83,1521.46,2063.73,1426.01z"/>
		<path id="XMLID_37_" class="st7" d="M2222.39,1330.56c0,0-133.88-11.16-158.67,95.45c47.1,95.45,138.83,115.28,138.83,115.28
			s8.68,11.16,17.35,21.69c8.68,10.54,14.88,41.53,14.88,41.53s4.96-13.64,0-33.47c-4.96-19.83-22.31-57.02,6.2-71.9
			c28.51-14.87,57.02,11.16,57.02,52.06c0,40.91-9.92,50.82-9.92,50.82s52.06-16.11,60.74-114.04
			C2357.51,1390.06,2296.77,1341.72,2222.39,1330.56z"/>
		<path id="XMLID_36_" class="st7" d="M2368.57,1307.64c-19.6-27.5-52.18-43.8-85.57-38.76c-24.78,3.74-50.73,18.69-60.61,61.69
			c58.98,8.85,109.24,41.2,123.26,103c0.03,0,0.13,0.01,0.13,0.01s30.33-11.28,36.53-53.43
			C2386.6,1350.89,2384.93,1330.59,2368.57,1307.64z"/>
		<path id="XMLID_35_" class="st9" d="M2390.98,1905.73c-6.2-70.66-35.95-193.38-102.89-240.48c0,0-9.92-4.96-33.47,4.96
			c-23.55,9.92-37.19,29.75-37.19,29.75s-26.03,66.94-44.63,126.44c-18.59,59.5,13.64,91.73,22.31,122.72
			c8.68,30.99-8.68,158.67-8.68,158.67s40.91,4.96,102.89,12.4c61.98,7.44,94.99-13.64,94.99-13.64S2397.18,1976.39,2390.98,1905.73
			z"/>
		<path id="XMLID_34_" class="st10" d="M2223.73,1699.96c0,0-20.77,63.22-20.77,156.19c0,92.97,8.08,94.21-40.4,106.6
			c-48.47,12.4-198.51,69.42-198.51,69.42s1.15,34.71,9.23,57.02c0,0,215.83-9.92,255.07-21.07c39.24-11.16,61.9-17.35,75.39-182.22
			c13.48-164.87,0.79-214.45-45.38-215.69C2228.35,1670.21,2223.73,1699.96,2223.73,1699.96z"/>
		<path id="XMLID_33_" class="st11" d="M2289.33,2120.18c-61.98-7.44-102.89-12.4-102.89-12.4s-162.39,63.22-213.16,88.01
			c-50.77,24.79-70.71,94.21-116.98,210.73c-46.28,116.52-87.6,265.27-87.6,265.27l66.94,34.71c0,0,27.27-34.71,99.17-131.4
			c71.9-96.69,91.73-245.44,91.73-245.44s74.38-17.35,140.59-24.79c66.21-7.44,199.06,7.44,217.2-61.98
			c18.14-69.42,0-136.35,0-136.35S2351.31,2127.62,2289.33,2120.18z"/>
		<path id="XMLID_32_" class="st8" d="M1823.25,2089.19c0,0,19.62-26.03,39.24-39.67c19.62-13.64,101.56-17.35,101.56-17.35
			l9.23,57.02H1823.25z"/>
		<g id="XMLID_71_">
			<path id="XMLID_30_" class="st12" d="M2041.86,2326.27c-9.62,2.08-15.32,3.41-15.32,3.41s-13.43,100.52-58.15,190.01
				c41.59,103.21,91.89,204.97,91.89,204.97l73.03-18.78c0,0-2.83-44.05-13.74-164.04
				C2111.84,2456.81,2067.23,2369.8,2041.86,2326.27z"/>
		</g>
		<path id="XMLID_29_" class="st13" d="M2095.96,2302.4v104.13c0,0,228.08,29.75,369.4,0c0,0,61.98-493.36,69.42-622.27
			s-52.06-114.04-61.98-61.98c-9.92,52.06-91.14,442.84-157.11,510.71C2249.71,2300.85,2095.96,2302.4,2095.96,2302.4z"/>
		<path id="XMLID_66_" class="st14" d="M1718.67,2035.12l-30.95,13.5c-1.92,0.84-4.15-0.04-4.99-1.96l-162.31-372.2
			c-0.84-1.92,0.04-4.15,1.96-4.99l30.95-13.5c1.92-0.84,4.15,0.04,4.99,1.96l162.31,372.2
			C1721.47,2032.05,1720.59,2034.29,1718.67,2035.12z"/>
		<path id="XMLID_28_" class="st7" d="M1702.64,2058.52l-19.54,8.52c-1.92,0.84-4.15-0.04-4.99-1.96l-174.36-399.83
			c-0.84-1.92,0.04-4.15,1.96-4.99l19.54-8.52c1.92-0.84,4.15,0.04,4.99,1.96l174.36,399.83
			C1705.44,2055.45,1704.56,2057.68,1702.64,2058.52z"/>
		<path id="XMLID_27_" class="st7" d="M1542.01,2078.01c1.04-30.23,8.16-116.25,54.02-189.64c4.97-7.95,16.97-6.39,19.65,2.59
			l1.89,6.35c0.93,3.13,0.39,6.51-1.44,9.21c-9.05,13.37-36.29,60.03-45.85,148.97c-0.69,6.4,4.36,12,10.8,12h41.66
			c5.99,0,10.85,4.86,10.85,10.85l0,0c0,5.99-4.86,10.85-10.85,10.85h-69.89C1546.73,2089.19,1541.8,2084.13,1542.01,2078.01z"/>
		<polygon id="XMLID_26_" class="st15" points="2136.44,2410.97 2063.73,2862.22 2095.96,2862.22 2192.53,2415.59 		"/>
		<polygon id="XMLID_25_" class="st15" points="2440.42,2410.97 2513.13,2862.22 2480.9,2862.22 2384.32,2415.59 		"/>
		<path id="XMLID_24_" class="st7" d="M1768.7,2671.8c0,0-32.23,37.19-80.57,60.74c-48.34,23.55-75.61,42.15-61.98,76.85
			s96.69,7.44,142.55,0c45.86-7.44,50.82-16.11,55.78-39.67c4.96-23.55,11.16-63.22,11.16-63.22S1782.34,2684.19,1768.7,2671.8z"/>
		<polygon id="XMLID_23_" class="st16" points="2217.44,1640.46 2250.49,1626.41 2217.44,1657.82 		"/>
		<polygon id="XMLID_20_" class="st7" points="2100.05,2121.77 2296.74,2862.22 2271.94,2862.22 2033.94,2121.77 		"/>
		<path id="XMLID_59_" class="st17" d="M2168.92,2153.44H1375.4c-1.84,0-3.33-1.49-3.33-3.33v-19.72c0-1.84,1.49-3.33,3.33-3.33
			h793.52c1.84,0,3.33,1.49,3.33,3.33v19.72C2172.25,2151.95,2170.76,2153.44,2168.92,2153.44z"/>
		<path id="XMLID_31_" class="st18" d="M2200.03,2138.3h-853.2c-3.68,0-6.66-2.98-6.66-6.66v-37.02c0-3.68,2.98-6.66,6.66-6.66
			h853.2c3.68,0,6.66,2.98,6.66,6.66v37.02C2206.69,2135.32,2203.71,2138.3,2200.03,2138.3z"/>
	</g>
</g>
<g id="XMLID_00000031166278601013683390000004033755702409851795_">
	<path id="XMLID_00000056415363014953530580000016801740058500283824_" class="st4" d="M1700.66,1043.55h225.53
		c52.35,0,94.79,42.44,94.79,94.79v65.37c0,12.29-2.37,24.03-6.62,34.81l40.74,89.61l-70.22-50.01
		c-16.14,12.75-36.51,20.37-58.68,20.37h-225.53c-52.35,0-94.79-42.44-94.79-94.79v-65.37
		C1605.88,1085.99,1648.32,1043.55,1700.66,1043.55z"/>
	<g id="XMLID_00000042697626269570336560000013236792892398334362_">
		<circle id="XMLID_00000106866253612747218820000006266911202881771451_" class="st5" cx="1894.3" cy="1168.41" r="19.03"/>
		<circle id="XMLID_00000074443915381837852740000009535607572967023262_" class="st5" cx="1838.45" cy="1168.41" r="19.03"/>
		<circle id="XMLID_00000008131719741827748800000001365827096436527777_" class="st5" cx="1782.6" cy="1168.41" r="19.03"/>
		<circle id="XMLID_00000098198614326659347110000014795059358916699285_" class="st5" cx="1726.76" cy="1168.41" r="19.03"/>
	</g>
</g>
<g id="XMLID_81_">
	<path id="XMLID_78_" class="st19" d="M1031.09,2269.15c0,0-21.95,67.42,36.06,67.42c58.01,0,40.76-95.64,112.88-58.01
		c72.12,37.63-59.58,308.86-111.31,330.81h-86.23c0,0-105.04-59.58-98.77-205.38c6.27-145.81,23.52-307.29,94.07-339.43
		c70.55-32.14,92.5,2.35,87.8,58.79C1060.88,2179.78,1031.09,2269.15,1031.09,2269.15z"/>
	<g id="XMLID_77_">
		<path class="st5" d="M990.33,2118.3c-26.11,138.66-32.12,307.94,25.87,439.04c4.12,9.02,8.55,17.9,13.33,26.6
			c-9.88-17.23-18.3-35.27-25.43-53.81C957.35,2405.02,963.19,2247.67,990.33,2118.3L990.33,2118.3z"/>
	</g>
	<path id="XMLID_80_" class="st15" d="M1077.31,2862.22H968.11c-19.61,0-36.57-13.65-40.76-32.8l-39.09-178.34
		c-5.7-26.03,14.12-50.67,40.76-50.67h187.36c26.65,0,46.47,24.64,40.76,50.67l-39.09,178.34
		C1113.87,2848.57,1096.91,2862.22,1077.31,2862.22z"/>
	<path id="XMLID_79_" class="st18" d="M1184.62,2652.7H860.8c-3.44,0-6.24-2.79-6.24-6.24v-49.29c0-3.44,2.79-6.24,6.24-6.24h323.83
		c3.44,0,6.24,2.79,6.24,6.24v49.29C1190.86,2649.9,1188.07,2652.7,1184.62,2652.7z"/>
</g>
<g id="XMLID_00000168108930110329294900000001807233362835735218_">
	<path id="XMLID_00000037678870289174519810000008889120369653663379_" class="st7" d="M4837.37,2999.79H711.72
		c-11.44,0-20.72-9.28-20.72-20.72v-108.55c0-11.44,9.28-20.72,20.72-20.72h4125.64c11.44,0,20.72,9.28,20.72,20.72v108.55
		C4858.09,2990.51,4848.81,2999.79,4837.37,2999.79z"/>
	<path id="XMLID_00000071535656727055592990000000692298364971356332_" class="st7" d="M5289.78,2999.79H4981.4
		c-11.44,0-20.72-9.28-20.72-20.72v-108.55c0-11.44,9.28-20.72,20.72-20.72h308.38c11.44,0,20.72,9.28,20.72,20.72v108.55
		C5310.5,2990.51,5301.22,2999.79,5289.78,2999.79z"/>
	<path id="XMLID_00000014622793323160026160000011583925485490035374_" class="st7" d="M595,2999.79H485.85
		c-11.44,0-20.72-9.28-20.72-20.72v-108.55c0-11.44,9.28-20.72,20.72-20.72H595c11.44,0,20.72,9.28,20.72,20.72v108.55
		C615.71,2990.51,606.44,2999.79,595,2999.79z"/>
</g>
</svg>
