<svg 
 xmlns="http://www.w3.org/2000/svg"
 xmlns:xlink="http://www.w3.org/1999/xlink"
 width="38px" height="34px">
<path fill-rule="evenodd"  fill="rgb(255, 255, 255)"
 d="M31.000,31.000 L3.000,31.000 L3.000,3.000 L23.000,3.000 L23.000,0.000 L3.000,0.000 C0.800,0.000 0.000,0.800 0.000,3.000 L0.000,31.000 C0.000,33.200 0.800,34.000 3.000,34.000 L31.000,34.000 C33.200,34.000 34.000,33.200 34.000,31.000 L34.000,15.000 L31.000,15.000 L31.000,31.000 Z"/>
<path fill-rule="evenodd"  fill="rgb(255, 255, 255)"
 d="M18.022,26.541 L14.042,26.541 L14.042,18.352 L11.850,18.352 L11.850,14.591 L14.042,14.591 L14.042,12.479 C14.042,10.540 15.270,8.276 18.733,8.276 C19.954,8.276 20.850,8.389 20.887,8.394 L21.255,8.441 L21.166,11.961 L20.761,11.957 C20.761,11.957 19.851,11.949 18.859,11.949 C18.120,11.949 18.022,12.129 18.022,12.845 L18.022,14.592 L21.281,14.592 L21.101,18.353 L18.023,18.353 L18.023,26.541 L18.022,26.541 L18.022,26.541 ZM12.672,15.404 L12.672,17.540 M14.864,25.729 L14.865,25.729 L14.865,25.729 L17.198,25.729 M17.198,15.404 L17.198,12.844 "/>
<path fill-rule="evenodd"  fill="rgb(255, 255, 255)"
 d="M37.041,0.489 C36.448,-0.112 35.485,-0.112 34.892,0.489 L29.282,6.181 L27.293,4.163 C26.700,3.562 25.737,3.562 25.144,4.163 C24.552,4.764 24.552,5.742 25.144,6.343 L28.570,9.818 C28.766,10.017 29.024,10.116 29.282,10.116 C29.539,10.116 29.797,10.017 29.994,9.818 L37.041,2.668 C37.633,2.068 37.633,1.090 37.041,0.489 ZM26.742,4.722 L28.788,6.798 C28.920,6.931 29.095,7.005 29.282,7.005 C29.468,7.005 29.643,6.931 29.775,6.798 "/>
</svg>